<svg id="Layer_1" data-name="Layer 1" xmlns="http://www.w3.org/2000/svg" xmlns:xlink="http://www.w3.org/1999/xlink" viewBox="0 0 2793.91 2000"><defs><style>.cls-1{fill:none;}.cls-2{clip-path:url(#clip-path);}.cls-3{fill:#2d4972;}.cls-4,.cls-7{fill:#13375b;}.cls-4{opacity:0.5;}.cls-5{fill:#184655;}.cls-6{fill:#eafcfc;}.cls-8{fill:#f8a492;}.cls-9{fill:#f48c7f;}.cls-10{fill:#f7a491;}.cls-11{fill:#96d9c9;}.cls-12{fill:#50bfa5;}.cls-13{fill:#f7cc7f;}.cls-14{fill:#fae0b2;}.cls-15{fill:#f47458;}.cls-16{fill:#a34b3d;}.cls-17{fill:#c8c6af;}.cls-18{fill:#fff;}.cls-19{fill:#b75742;}.cls-20{fill:#355389;}.cls-21{fill:#fcf0d0;}.cls-22{fill:#f79c8d;}.cls-23{fill:#86b1f2;}.cls-24{fill:#3c8f7c;}.cls-25{fill:#eab054;}.cls-26{fill:#e25a44;}.cls-27{fill:#0e2e35;}.cls-28{fill:#e5b05c;}.cls-29{fill:#dd513a;}.cls-30{fill:#fe875e;}.cls-31{fill:#6394db;}.cls-32{fill:#466eb6;}</style><clipPath id="clip-path"><path class="cls-1" d="M10.85,835.16C64.88,109.36,795.79,101,795.79,101S867,64.59,1439.56,26.11C2003-11.75,2487.54,288.18,2651.61,622c215.44,438.32,164.54,955.28-94.26,1165.64-265.28,215.63-620.7,228.65-1157.32,131.78-548.7-99.05-933.93,110.2-1227.95-376.71C-30.1,1207.86,10.85,835.16,10.85,835.16Z"/></clipPath></defs><title>2023</title><g class="cls-2"><rect class="cls-3" x="-85.64" y="-119.65" width="3763.55" height="1658.08"/><polygon class="cls-4" points="3641.98 1035.96 3533.73 1035.96 3533.73 801.87 3429.53 801.87 3429.53 906.1 3343.29 906.1 3343.29 872.54 3343.29 665.93 3202.09 665.93 3202.09 885.54 3159.86 886.95 3159.86 665.52 3110.58 665.52 3110.58 571.15 3081.01 571.15 3081.01 507.78 2965.57 507.78 2965.57 571.15 2936 571.15 2936 665.52 2886.72 665.52 2886.72 785.47 2863.99 786.88 2857.16 431.51 2705.11 431.51 2705.11 620.56 2651.61 621.97 2651.61 326.49 2633.3 326.49 2633.3 264.13 2472.8 264.13 2472.8 326.49 2454.5 326.49 2454.5 724.68 2420.71 724.68 2420.71 600.52 2392.55 600.52 2392.55 539.81 2351.72 539.81 2351.72 362.59 2292.59 362.59 2292.59 539.81 2251.76 539.81 2251.76 600.52 2223.6 600.52 2223.6 810.58 2203.89 810.58 2188.41 810.37 2188.41 567 1771.67 570.98 1771.67 1119.01 1736.47 1119.01 1736.47 1047.18 1648.81 1047.18 1648.81 223.22 1568.53 223.22 1568.53 273.92 1531.91 273.92 1531.91 667.49 1405.16 667.49 1405.16 739.32 1297.68 739.32 1297.68 571.18 1127.87 567.19 1127.87 810.56 1112.38 810.77 1092.66 810.77 1092.66 600.71 1064.49 600.71 1064.49 540 1023.65 540 1023.65 362.78 964.5 362.78 964.5 540 923.66 540 923.66 600.71 895.49 600.71 895.49 724.87 861.69 724.87 861.69 326.68 843.38 326.68 843.38 264.33 682.83 264.33 682.83 326.68 664.52 326.68 664.52 622.16 611 620.75 611 431.7 458.9 431.7 452.07 787.08 429.32 785.66 429.32 665.71 380.03 665.71 380.03 571.35 350.45 571.35 350.45 507.97 234.97 507.97 234.97 571.35 205.39 571.35 205.39 665.71 156.1 665.71 156.1 887.14 113.85 885.74 113.85 666.12 -27.39 666.12 -27.39 872.74 -27.39 906.3 -121.57 906.3 -121.57 1642.57 1760.24 1642.48 3641.98 1642.38 3641.98 1035.96"/><rect class="cls-5" x="-121.57" y="1655" width="3763.55" height="330.5"/><rect class="cls-6" x="-121.57" y="1353.5" width="3763.55" height="32.23"/><rect class="cls-6" x="172.51" y="1369.62" width="13.96" height="285.47"/><rect class="cls-6" x="429.86" y="1369.62" width="13.96" height="285.47"/><rect class="cls-6" x="687.21" y="1369.62" width="13.96" height="285.47"/><rect class="cls-6" x="944.56" y="1368.94" width="13.96" height="285.47"/><rect class="cls-6" x="1201.91" y="1369.62" width="13.96" height="285.47"/><rect class="cls-6" x="1459.27" y="1369.62" width="13.96" height="285.47"/><rect class="cls-6" x="1716.62" y="1369.62" width="13.96" height="285.47"/><rect class="cls-6" x="1973.97" y="1369.62" width="13.96" height="285.47"/><rect class="cls-6" x="2231.32" y="1369.62" width="13.96" height="285.47"/><rect class="cls-6" x="2488.67" y="1369.62" width="13.96" height="285.47"/><rect class="cls-6" x="2746.03" y="1369.62" width="13.96" height="285.47"/><polygon class="cls-7" points="-13.96 1985.59 -27.92 1985.59 172.5 1655.09 186.47 1655.09 -13.96 1985.59"/><polygon class="cls-7" points="243.39 1985.59 229.43 1985.59 429.86 1655.09 443.82 1655.09 243.39 1985.59"/><polygon class="cls-7" points="500.75 1985.59 486.78 1985.59 687.21 1655.09 701.17 1655.09 500.75 1985.59"/><polygon class="cls-7" points="758.1 1985.59 744.13 1985.59 944.56 1655.09 958.52 1655.09 758.1 1985.59"/><polygon class="cls-7" points="1015.45 1984.91 1001.49 1984.91 1201.91 1654.41 1215.88 1654.41 1015.45 1984.91"/><polygon class="cls-7" points="1272.8 1985.59 1258.84 1985.59 1459.27 1655.09 1473.23 1655.09 1272.8 1985.59"/><polygon class="cls-7" points="1530.15 1985.59 1516.19 1985.59 1716.62 1655.09 1730.58 1655.09 1530.15 1985.59"/><polygon class="cls-7" points="1787.51 1985.59 1773.54 1985.59 1973.97 1655.09 1987.93 1655.09 1787.51 1985.59"/><polygon class="cls-7" points="2044.86 1985.59 2030.9 1985.59 2231.32 1655.09 2245.28 1655.09 2044.86 1985.59"/><polygon class="cls-7" points="2302.21 1985.59 2288.25 1985.59 2488.67 1655.09 2502.64 1655.09 2302.21 1985.59"/><polygon class="cls-7" points="2559.56 1985.59 2545.6 1985.59 2746.03 1655.09 2759.99 1655.09 2559.56 1985.59"/><rect class="cls-7" x="-121.57" y="1627.79" width="3763.55" height="29.37"/><path class="cls-8" d="M180.84,1414.46c-1.06-2.94-18.78-58-18.78-58l27.27,6.07,12.43,42.78c1.06,2.14,20.25,53.89,26.92,70.57a10.76,10.76,0,0,0,7.81,6.5h.06a38.42,38.42,0,0,1,7.92,2.78c1.13.77,3.39,2.42,4.74,3.44s3,2.14,3.63,2.77a8.9,8.9,0,0,0,2.37,1.12,1.44,1.44,0,0,1,.09,2.69c-1.14.48-2.83-.07-3.88-.41-3-1-6.82-4.08-6.94-3.63s4.27,7.62,4.73,8.47,5.52,9.2,6,11.14-.69,2.55-1.66,1.94-8.71-11.54-8.71-11.54-1-1.41-1.22-.5,6.91,10.91,7.7,12.6.51,3.19-1.2,2.78c-2.08-.51-9-11.67-9-11.67s-.9-1.38-1.32-.81,5.77,9,6,10a1.37,1.37,0,0,1-2.11,1.48c-1.75-.83-7.86-10.85-7.86-10.85s-.68-.62-.8-.11,4.65,8.07,4.51,9.28a1,1,0,0,1-1,.93c-2,.24-5.61-7.75-8.38-10.88S182,1417.72,180.84,1414.46Z"/><path class="cls-9" d="M69.77,1707.88s-5.84,5.7-6,7.78-.52,24.47,1.87,26.56,9.37,3.57,7.12,5.92c-1.7,1.78-14.77,1.4-23.44.92-2.53-.14-5.7-20.32-6.7-23.29-1.46-4.31-5-14-3.68-17,.65-1.46,3.73-4.47,8.08-7.27,4.57-3,8.94-9.53,8.94-9.53Z"/><path class="cls-10" d="M130.2,1721.14s-5.22,14.75-5.23,14.79c-.39,2.33-1.91,8.1-1.91,10.23,0,8,36-6.78,27.92-10.31a8.53,8.53,0,0,1-3.26-5.59c-.37-4.19,3-9.44,3-9.44Z"/><path class="cls-11" d="M186.65,1446.51s2.63,26.44,2.63,26.83c0,42.77,8.48,126.31,6.86,134.35-3.93,19.62-46.26,119.66-46.26,119.66L127,1724.62l29.81-119.79-11-48.21-15.52-95.3Z"/><path class="cls-12" d="M109.87,1469.9l-4.35,25L93.78,1598.08l-44.73,100.8s6.29,14.67,15.57,16.73l71.2-103.49L180,1479.7l-1.55-29.42Z"/><path class="cls-13" d="M195.78,1383.56l-31.73,3.24s-1.45-26-1.45-38.42c0-15.05,1.28-34.44,3.1-34,5.1,1.17,12,4,16.06,9.61C195.92,1343.42,195.78,1383.56,195.78,1383.56Z"/><path class="cls-14" d="M180.19,1345.73c.67,4.59,12.86,129.35,12.86,129.35-57.76,27.9-89.64,5-89.64,5s1.89-87.61-.38-99.53c-1.49-7.89-3.36-60.32,1.75-61.79a128.22,128.22,0,0,1,22.28-4.74c7-.72,34.19-1.14,39.06.49A61.94,61.94,0,0,1,180.19,1345.73Z"/><path class="cls-11" d="M47.33,1701.33S60.78,1739.19,66,1741c1.4.48,8.1,1.72,9.37,4.68.38.89,0,3.88,0,3.88h-28s-3.54-16.68-4.94-24c0,0-7.42-17.91-6.6-19.53S47.33,1701.33,47.33,1701.33Z"/><path class="cls-11" d="M121,1748.79l4.12-13s8.65,3.66,13,3a131.19,131.19,0,0,0,12.78-3c17.27,5.69,31.42,8.45,28.85,13H121Z"/><path class="cls-10" d="M134.74,1288.38l-4.25,26s15.56,33.06,24.86,30.28c7.8-2.34,3-30.73,3-30.73s-4.25-15.25-3-22.88S134.74,1288.38,134.74,1288.38Z"/><path class="cls-15" d="M155.37,1291c1.28-7.64-20.63-2.65-20.63-2.65l-.35,2.23a12.28,12.28,0,0,0,2.37,3.76,29.43,29.43,0,0,0,19.16,8.31C155.25,1298.57,154.85,1294.16,155.37,1291Z"/><path class="cls-10" d="M131.15,1250.24c-.62-.21-5,30.7,3.28,39.21s24.3,11.29,30.06,4.59c6.37-7.41,6-40.64-6.76-49.39S131.15,1250.24,131.15,1250.24Z"/><path class="cls-16" d="M134.17,1238.33c-4.5.51-10.61,2.9-16.92,12.92-7.76,12.32-2,26,7,32.68s8.88,14.37,8.88,14.37l1.46-3.94a21.62,21.62,0,0,0,1.13-9.43,17.83,17.83,0,0,0-1.46-5.66c-2.17-4.48,4.67-7.45,6.59-11.17,1.47-2.87,1.55-9.43,3.87-14.16l2.78-3.62s6.41-4.79,12.69-3.44S158.75,1218.88,134.17,1238.33Z"/><path class="cls-10" d="M140.42,1273.6c.07,3.77-1.72,6.86-4,6.89s-4.16-3-4.23-6.76,1.72-6.86,4-6.89S140.36,1269.83,140.42,1273.6Z"/><path class="cls-17" d="M179.4,1352.49c-1-.54-.77-2-.06-4.22.63-2-.45-6.78-1.6-11.88-2-8.86-4.27-18.9-.57-24a7.75,7.75,0,0,1,5.81-3.1,6,6,0,0,1,5.7,2.22c6.2,8.08-4.29,36.27-4.74,37.47l-.52.86,0,.08c-2.19,2.77-3.24,2.86-3.73,2.7A.9.9,0,0,1,179.4,1352.49Zm2.91-4.24c3-8,9.6-29.64,5-35.68a4.27,4.27,0,0,0-4.13-1.53,6,6,0,0,0-4.55,2.37c-3.22,4.47-1,14.52.87,22.59,1.31,5.8,2.34,10.39,1.56,12.82a14.61,14.61,0,0,0-.42,1.49,15.49,15.49,0,0,0,1.34-1.47Z"/><path class="cls-17" d="M67.7,1685.18c1.75.59,3.79-.74,4.55-3l111.62-328.5c.77-2.25,0-4.55-1.78-5.14s-3.78.74-4.55,3L65.92,1680C65.16,1682.28,66,1684.59,67.7,1685.18Z"/><path class="cls-15" d="M60.19,1695.89l7.29,2.35a2.1,2.1,0,0,0,2.67-1.48l3.6-14.21a2.08,2.08,0,0,0-1.38-2.5l-5.46-1.77a2.1,2.1,0,0,0-2.58,1.22l-5.44,13.62A2.1,2.1,0,0,0,60.19,1695.89Z"/><path class="cls-15" d="M162.53,1394.22l7.93,2.56a1.26,1.26,0,0,0,1.59-.82l15.06-46.6a1.27,1.27,0,0,0-.82-1.59l-7.93-2.56a1.26,1.26,0,0,0-1.59.81l-15.05,46.61A1.26,1.26,0,0,0,162.53,1394.22Z"/><path class="cls-10" d="M68.75,1371l22.81,16.54-15.87,25.12c12.66,12.65,43.08,32.91,43.08,32.91s2.83,1.94,6.65,4.15l2.93,1.7a20.71,20.71,0,0,1,6.17.49c2.22.76,6.41,1.1,7.35,1.78s4.74,5.75,5.4,6.23a5.89,5.89,0,0,1,1.36,2.07c.29.54,4.91,3.78,5.49,5s-.94,4.1-2,4.52c0,0-.2.22,0,.84a3.85,3.85,0,0,1-.51,2.9c-.55.67-2,1.41-2.94.77,0,0-.55-.2-.71-.07a8.28,8.28,0,0,1-1.26,2.11c-.79.75-2,.86-3.53-.08,0,0-1,4-4.32,2l-4.54-2.77a19.29,19.29,0,0,1-3.87-1.61c-1-.76-7.66-5.18-8-5.76a14.26,14.26,0,0,0-1.38-2.17,36.33,36.33,0,0,1-3.59-3.5,49.85,49.85,0,0,0-4.11-3.68c-2.12-1-4.35-2-6.66-3.1h0c-32-15.07-63.36-28.91-61.71-40.52C45.93,1410.47,61.34,1381.31,68.75,1371Z"/><path class="cls-14" d="M63.54,1371.66,91,1390.12s15.49-23,23.8-31.26c10.42-10.28-3.79-41.77-10.5-40C89.32,1322.85,63.54,1371.66,63.54,1371.66Z"/><path class="cls-18" d="M164.65,1280.71,151,1282.09s.84,5.15,6.84,4.71C165.21,1286.27,164.65,1280.71,164.65,1280.71Z"/><path class="cls-10" d="M358.8,1701.55s1.8,19.72.62,26.15a24.64,24.64,0,0,1-.92,3.15c-1.22,3.6,2.13,14.61,2.13,14.61l44.93.17c2.44,0,.81-1.55-1.18-3-3.26-2.33-5.89-3.86-16.26-8.71-.68-.32-3.15-1.85-4-2.37a31.22,31.22,0,0,1-6.5-5.59c-3.27-3.54-3.76-20.92-3.76-20.92Z"/><path class="cls-19" d="M384.07,1731.57c-11.84,3.19-20.65,1.23-25.58-.68-1.22,3.6-3.53,15.77-2.15,15.77,11.26,0,20.8,2.13,53.08,1.62,1.16,0,1-4,.26-4.87C407.6,1741,385,1732.1,384.07,1731.57Z"/><path class="cls-19" d="M302.45,1467.51s.64,28.14,8.7,46.16c7.86,17.56,45.46,60.85,55.45,86.11-3.09,14.26-11.58,34.29-11,50.09.7,17.9-.34,65.27-.34,65.27l20.17.64,26.47-122.24-39.88-131.89-18.1-32Z"/><path class="cls-10" d="M216.25,1673.52s-12.39,17-17.85,21.31c-2.93,2.31-10.87,5.4-11.71,9.21s36,37.49,36,37.49c2,1.73,1.73-.66,1.14-3.19-1-4.15-2-7.22-6.87-18.38-.32-.72-1.22-3.67-1.56-4.72a33.36,33.36,0,0,1-1.27-9c-.12-5.12,11.68-19.35,11.68-19.35Z"/><path class="cls-19" d="M215.37,1715.23c-11.7-5.76-17.36-13.51-20-18.5-3.51,2-12.93,6.31-12.1,7.51,6.51,9.45,13.27,21.2,39.4,43.45.94.79,4.77-3.8,4.79-5C227.54,1739.27,215.71,1716.28,215.37,1715.23Z"/><path class="cls-16" d="M303.87,1449.48s-15.6,23.44-19.31,42.83c-3.62,18.89,2.4,75.91-3.89,102.34-10.7,9.92-29.13,21.47-37.68,34.77-9.68,15.07-37.67,53.3-37.67,53.3l16.17,12.08,91.72-85,37.13-113.43,10.16-38Z"/><path class="cls-8" d="M350.35,1412.72c-.61-3.16-9.91-61.83-9.91-61.83l26.72,10.48,5.86,45.37c.74,2.33,12.05,57.88,16.18,75.85a11,11,0,0,0,6.91,7.83l.05,0a39.65,39.65,0,0,1,7.6,4.08c1,1,3.06,3,4.27,4.23s2.69,2.65,3.25,3.39a9.15,9.15,0,0,0,2.22,1.51,1.48,1.48,0,0,1-.33,2.74c-1.24.31-2.87-.51-3.88-1-2.85-1.45-6.27-5.23-6.47-4.79s3.14,8.41,3.46,9.34,4.16,10.21,4.31,12.26-1.1,2.47-2,1.7-7-13.09-7-13.09-.8-1.58-1.15-.7,5.28,12.17,5.81,14,0,3.31-1.65,2.62c-2-.84-7.32-13.26-7.32-13.26s-.68-1.54-1.21-1,4.45,10,4.47,11.12a1.4,1.4,0,0,1-2.37,1.16c-1.64-1.11-6.26-12.24-6.26-12.24s-.59-.74-.8-.24,3.44,8.93,3.11,10.13a1,1,0,0,1-1.19.78c-2-.07-4.47-8.75-6.78-12.36S351,1416.21,350.35,1412.72Z"/><path class="cls-13" d="M361.55,1293.39c.54-13-1.37-25.93-7.18-38.07-5-10.46-17.38-16.39-28.66-16.4-35.83-.05-40.39,47.5-63.2,65.84-7,5.6-14.76,10.16-21.35,16.21-24.35,22.31-13.38,63.62,9,83.18,15.51,13.58,39.9,21.29,59,10.68,10-5.54,17.56-14.75,23-24.84,7.66-14.32,12.6-30.84,18.05-46.1C356,1327.64,360.84,1310.73,361.55,1293.39Z"/><path class="cls-9" d="M248.19,1490.38c-.07-.3,11.84-50.85,16.65-62s23.52-63.11,23.52-63.11L264.15,1360s-15.62,40.63-22.73,59-4.08,52.24-4.4,61.79c0,.14-1,8.09-1.05,8.22h0a14.89,14.89,0,0,1-.57,2.11,30.75,30.75,0,0,0-1.16,4,10.55,10.55,0,0,1-1,1.83c-.29.47-1,7-1.09,8a15.79,15.79,0,0,0,.32,3.42l-.25,4.36c-.19,3.19,3.12,2.35,3.12,2.35-.07,1.51.45,2.29,1.3,2.58a6.82,6.82,0,0,0,2,.1c.16.07.22.54.22.54-.09,1,1,1.7,1.69,1.83a3.15,3.15,0,0,0,2.3-.74c.35-.42.6-.36.6-.36.7.61,3.41.58,4-.29s1.19-5.46,1.47-5.88a4.62,4.62,0,0,0,1-1.78c.09-.66,2.3-5.37,2.43-6.3s-1.24-4.11-1.55-6-2.15-4.85-2.6-5.7a7.4,7.4,0,0,1,0-2.61Z"/><path class="cls-7" d="M367.4,1356.57c-11.19-34-23.7-32.5-23.7-32.5l9.68,71.37c6.91-1.89,15.91-6.1,22.81-8A310.11,310.11,0,0,0,367.4,1356.57Z"/><path class="cls-20" d="M315.06,1318s-20.62-1.32-28.78,7.6,18.09,79.4,19.58,90.75-7.56,41.5-7.56,41.5,48.43,9.77,62.28.58c0,0,1.48-81.56,0-89.66s-13.85-41-16.81-44.29S315.06,1318,315.06,1318Z"/><path class="cls-10" d="M321.92,1290.36l-.3,1.64c-.92,5-4.46,21.45-6.85,26-2.89,5.48,9.9,22.94,22.2,20.81,3.66-.63-3.1-16-2.77-17.68.62-3.12,1.46-7.39,2.33-11.76.48-2.46,1-5,1.44-7.32,1.32-6.67,2.39-12.14,2.39-12.14Z"/><path class="cls-15" d="M321.62,1292l.3-1.64,18.44-.47s-1.07,5.47-2.39,12.14l-1.43,7.28a17.29,17.29,0,0,1-8.81-4.42,23.41,23.41,0,0,1-6.67-9.94C321.29,1293.78,321.48,1292.77,321.62,1292Z"/><path class="cls-10" d="M334.33,1248.34s-8.69-1-14.14,6.06-11.32,28.9,2.22,40.78,26.9-1.57,28.88-15.82S354.05,1247.83,334.33,1248.34Z"/><path class="cls-10" d="M355.3,1279.15c-1.62,3.15-4.33,4.89-6.06,3.89s-1.82-4.36-.21-7.5,4.33-4.89,6.06-3.9S356.91,1276,355.3,1279.15Z"/><path class="cls-13" d="M335.3,1246s-11.61,20.77-19.92,21.73-9.39,12-9.39,12,3-25.43,11.19-30.33S335.3,1246,335.3,1246Z"/><path class="cls-18" d="M325.7,1283l17.37.69s-.66,6.58-8.31,6.5C325.44,1290.08,325.7,1283,325.7,1283Z"/><path class="cls-20" d="M278.91,1395.6s26.73-32,31.56-43.82-2.4-29.56-13.67-31-39.48,51.1-39.48,51.1Z"/><path class="cls-15" d="M492.9,544.88c3-14.57,5.63-29.26,9.21-43.7,19.28-77.66,52.52-149.4,94.08-217.35,23.54-38.47,48.42-76.14,73.48-113.65,7.26-10.86,17-20.17,26.15-29.63,3.88-4,9-7.61,15.22-2.87s6.24,10.89,2.7,16.64c-8.09,13.13-16.19,26.35-25.44,38.65-24.43,32.48-50.31,63.89-74.09,96.83-43,59.58-76,124.61-100.54,193.87-7.13,20.16-13.11,40.74-19.62,61.12Z"/><path class="cls-15" d="M476.69,614.46c-6.13-17.84-11.78-35.88-18.48-53.51-34-89.4-82.56-170.1-144.89-242.69-20.94-24.38-40.59-49.87-60.47-75.13-3.93-5-6.56-11.11-9.21-17-2.25-5-.48-10,4.19-12.16,3.23-1.47,8.95-1.89,11.37,0,8.17,6.41,16.63,13.13,22.71,21.4,24.51,33.31,48.78,66.82,72,101,35.88,52.91,67.17,108.45,90.89,168,13.29,33.38,24.53,67.42,31.33,102.79.45,2.38.79,4.77,1.18,7.15Z"/><path class="cls-13" d="M406,566.8c-1.75-1.12-3.56-2.15-5.25-3.36-76.09-54.17-159.56-92.89-249.43-117.62C117,436.38,82,429.73,47.34,421.39c-15.24-3.67-30.26-8.23-45.29-12.69a56.37,56.37,0,0,1-11.46-5.37c-4.9-2.79-6.51-7.16-5.43-12.74,1.16-5.92,5.65-8,10.46-7.52,12.35,1.15,24.9,2.09,36.87,5.07,55.44,13.79,109,33.35,162.29,53.75,44.29,16.95,87.27,36.92,127.28,62.35,27.27,17.33,52.83,37.36,79.12,56.24a71.21,71.21,0,0,1,5.76,5.12Z"/><path class="cls-15" d="M468.69,612.57c-4.32-8-8.48-16-13-23.9-30.2-52.56-68.78-97.17-122.51-126.91C300.87,443.88,266.62,432.57,229,435c-3.47.23-6.91.85-10.37,1.17-13.38,1.25-20.39-4.58-21.36-17.7-.85-11.44,6.74-19.89,18.82-20.4a186.65,186.65,0,0,1,79.55,14.09c46.15,18.95,81.19,51.58,111.17,90.38,25,32.31,44.74,67.7,61.31,104.93.67,1.49,1.1,3.09,1.64,4.64Z"/><path class="cls-15" d="M488.12,630.75c-4.07-18.17-8.83-36.22-12.08-54.53a474,474,0,0,1-1.74-153.36A432,432,0,0,1,511,300.9a57.41,57.41,0,0,1,15.64-19.45c8.84-7.09,18.63-2.38,18.74,9a71.5,71.5,0,0,1-4.79,25.36c-3.85,10.18-9.28,19.86-14.8,29.3C489.29,407.49,477.36,475.4,481,546.52c1.41,28.05,5.18,56,7.88,84Z"/><path class="cls-15" d="M455.13,626.39c-8.45-6-16.77-12.3-25.39-18.08-54.39-36.5-114-57.65-179.71-60.62-23.49-1.06-46.29,1.69-67.54,12.71-2,1-4.07,1.88-6.14,2.74-12.78,5.26-20.68-.79-18.65-14.6,1.29-8.75,6-15,14.73-18.07,38.64-13.53,77.82-13.93,117.09-3.88C354.63,543.25,407.77,580.33,455.13,626.39Z"/><path class="cls-13" d="M266.65,324.1c-15.62-3.92-31.73-9.37-48.28-11.73-18.66-2.65-37.7-2.81-56.59-3.51-19.15-.7-38.34-.72-57.51-1.09a49.89,49.89,0,0,1-7.44-.61c-11-1.86-17.38-8.11-17.62-17.13-.27-10.11,7-20.14,17.4-21.11a187.5,187.5,0,0,1,34.25.16c49.37,4.48,93.68,22.15,133,52.4A30,30,0,0,1,266.65,324.1Z"/><path class="cls-13" d="M428.69,353.27c-1.24-17.72-3.5-35.44-3.51-53.16,0-42.13,10.47-81.79,30.59-118.88,3.78-7,8.84-11.92,16.86-13.42,14.55-2.72,25.71,8.41,21.56,22.61-2.76,9.48-7.27,18.53-11.65,27.44-6.82,13.86-14.2,27.43-21.33,41.13-15.4,29.6-27.67,60.19-29.54,94.08Z"/><path class="cls-13" d="M622.75,592.07C638.28,585,653.47,577,669.4,571c30.61-11.53,62.45-14.6,95-10.62a34.57,34.57,0,0,1,4.43.68c8.12,2.15,14,10.32,13.4,18.5-.58,7.79-6.59,13.49-16.07,13.48-11.2,0-22.42-.9-33.58-1.94-28-2.61-56-6.77-84.23-2.14-8.26,1.36-16.4,3.44-24.59,5.19Z"/><path class="cls-13" d="M137.2,502.71c-36.31-4.2-70.14,6.32-104,16.72-10.7,3.29-21.59,6.05-32.52,8.48-10.71,2.39-18.34-1.59-20.41-9.81-2.35-9.33,2.68-18.48,12.43-21.73,37.33-12.46,75.24-14,113.49-5,10.56,2.48,20.87,6,31.29,9.1Z"/><path class="cls-13" d="M448.4,655.16c-21.85,7.53-45.72,14.67-68.75,23.92C337.15,696.16,301.7,722.9,274.32,760a141,141,0,0,1-16.52,18.21,30.68,30.68,0,0,1-11.49,6.65c-7.85,2.51-13.34-2.59-10.78-10.43a43.82,43.82,0,0,1,9.22-15.89c50.28-53.92,112.17-86.76,184.4-100.46C436.15,656.76,443.25,655.93,448.4,655.16Z"/><path class="cls-15" d="M508.4,635.17c-2.07-72,16.06-138.13,56.36-197.86a204.51,204.51,0,0,1,16.61-22,38.36,38.36,0,0,1,13.71-9.82c7.17-2.91,12.35,1.32,10.75,8.88a44.69,44.69,0,0,1-7.76,17.41C591,441,582.63,449.29,574.81,458c-34.33,38.16-51.56,84-60.23,133.72C512.07,606.11,510.44,620.68,508.4,635.17Z"/><path class="cls-13" d="M535.13,653.87c20.08-5.33,40-11.74,60.28-15.81A320.68,320.68,0,0,1,760.6,648c6.44,2.1,12.51,6,18,10.08,2.18,1.64,3.85,6.79,2.85,9.09-1.17,2.69-5.74,5.94-8.41,5.6-10-1.27-20.35-2.53-29.52-6.32-23.32-9.65-46.67-18.66-71.87-22.08-42.93-5.82-84.94-.44-126.58,9.93-3.06.77-6.13,1.51-9.2,2.26C535.6,655.66,535.36,654.77,535.13,653.87Z"/><path class="cls-15" d="M441.31,644.19c-4.25-1.86-8.52-3.66-12.74-5.6-48.09-22.08-97.66-28.65-149.32-14.66-13.22,3.58-26.59,6.57-39.89,9.85-9.21,2.28-13.35-1.49-11.39-11,2.16-10.45,9.89-14.84,19.52-17.06,36.71-8.48,73.25-7.08,109.63,1.88a304.85,304.85,0,0,1,78.73,31.88c2,1.17,4,2.5,5.95,3.75C441.64,643.58,441.48,643.89,441.31,644.19Z"/><path class="cls-13" d="M225,674c-22.65,11.14-45.54,21.43-67.52,33.42-41,22.39-78.29,50.29-113.11,81.44-1.49,1.33-3,2.67-4.46,4-4.59,4-9.4,6-14.38.77-4.53-4.79-3.93-11.86,1.78-16.4,10.91-8.67,21.88-17.32,33.22-25.41,44.86-32,92.48-58.61,146-73.42C212.68,676.64,218.92,675.4,225,674Z"/><path class="cls-13" d="M385.33,316.69c-5.46-18.85-10.25-37.92-16.5-56.5-16.94-50.34-41.12-97.17-70.16-141.55-1.22-1.87-2.57-3.68-3.67-5.63-2.75-4.85-3.4-9.73,2-13.06,5.22-3.23,10.46-2.82,14.78,2.07a15.08,15.08,0,0,1,1.62,2.5c31,53,55.72,108.57,67.17,169.3,2.67,14.15,3.87,28.57,5.74,42.86Z"/><path class="cls-13" d="M703,512.42c34.24-6.86,68.26-6.24,102.3-2A612.43,612.43,0,0,1,924.51,538c5.52,1.85,9.3,4.61,9.49,10.86.27,8.16-5.19,11.93-13.53,9-16.93-5.93-33.61-12.62-50.72-18-53.57-16.71-108.19-27.5-164.61-27.15A15,15,0,0,1,703,512.42Z"/><path class="cls-13" d="M695.41,267.47c7.52-6.21,14.79-12.76,22.6-18.58,49-36.52,104.34-59.84,162.48-77.17,3.35-1,6.68-2,10-2.92,9-2.45,14.8.06,16.81,7.17,1.78,6.34-1.67,10-11.48,12.13C851.94,197.72,809,210.69,768.35,230,745,241,722.78,254.47,700.05,266.86c-1.2.65-2.38,1.36-3.57,2C696.13,268.42,695.77,267.94,695.41,267.47Z"/><path class="cls-13" d="M656,396c18.21-17.61,37.56-31.17,57.92-43.3,44-26.2,91.29-44.31,140.41-58.09,5.15-1.44,9.88-1.28,13.54,3.31,5.18,6.52,2.54,13.36-6.19,15.6-15.92,4.08-32,7.53-47.78,12.12-54.8,15.94-107.11,37.55-154.64,69.7C658.91,395.59,658.37,395.54,656,396Z"/><path class="cls-13" d="M565.86,215.67c.85-33.44,10.6-64.19,28.55-92.21,5.76-9,12.68-17.26,19.61-25.4,2.42-2.84,6.52-6.09,9.76-6,5.23.17,11.33,1.75,15.31,4.93,4.73,3.76,3.63,10.15.5,15.11a140.56,140.56,0,0,1-10.69,14.38q-8.31,10.08-17.1,19.8C593.06,167.08,575.51,188.64,565.86,215.67Z"/><path class="cls-15" d="M596.46,474.8c32.5-32.41,71.38-51,117.08-54.75,9.73-.79,17.28,5.42,18.14,13.93.77,7.7-3.82,13.1-14.31,14.82-15,2.45-30,4.34-45.08,5.95C646,457.57,620.3,462.48,596.46,474.8Z"/><path class="cls-13" d="M798.49,448.48c24.36-7,48.88-8.22,73.58-7.57,38.28,1,75.71,7.65,112.72,17.11a26,26,0,0,1,2.85.87c5.72,2.22,7.27,6.72,5.68,12.09s-6,5.52-10.39,4.28c-12.94-3.63-25.74-7.78-38.75-11.08-45.86-11.63-92.34-18-139.77-15.71C802.44,448.57,800.46,448.48,798.49,448.48Z"/><path class="cls-13" d="M532.21,674.9c35.54-1.34,69.56,5.35,101.19,21.32,14.81,7.48,28.5,17.25,42.39,26.44,3.36,2.22,5.93,6,8,9.58,1,1.72.9,5.32-.29,6.76s-5,2.39-6.55,1.54a159.24,159.24,0,0,1-18.08-11.46c-14.46-10.5-27.89-22.72-43.26-31.61-23.15-13.38-49.27-18.57-75.7-21.62C537.35,675.55,534.78,675.22,532.21,674.9Z"/><path class="cls-15" d="M525,643c9.49-30.54,25.15-57.91,47.82-80.43,14-13.93,30.43-25.48,46-37.75a23.41,23.41,0,0,1,10.93-4.28c2.42-.34,6.12,1.06,7.48,3,1,1.41,0,5.92-1.54,7.2-6.13,4.93-12.42,10-19.43,13.43-23.5,11.43-44,26.6-59.47,47.65-10.26,14-18.8,29.27-28,44C527.3,638.08,526.2,640.6,525,643Z"/><path class="cls-13" d="M181.59,593.61c-22.66.16-42.53,9.67-62.7,18.2-5.73,2.42-11.47,4.9-17.4,6.74-5.51,1.72-11.08,1.94-13.72-4.9-2.08-5.37.57-11.15,6.74-14a125.63,125.63,0,0,1,63.29-11.26c7.88.64,15.68,2.18,23.52,3.31Z"/><path class="cls-13" d="M203.59,726c-20.33,12.56-33.06,32.08-47.05,50.44a151.67,151.67,0,0,1-11.06,13.08c-3.39,3.54-8.45,5.36-11.87,1.51-2.63-3-2.92-8.13-3.91-12.38-.21-.92.89-2.27,1.6-3.26C149.37,750.25,173.56,734,203.59,726Z"/><path class="cls-15" d="M464,669.13c-17.55,11.4-28.43,28.58-40.7,44.48-2.42,3.15-4.61,6.91-7.83,8.87-2.89,1.76-7.76,2.95-10.49,1.67-4.45-2.08-5.39-7.17-2.65-11.6a81.82,81.82,0,0,1,9-11.79A103.68,103.68,0,0,1,464,669.13Z"/><path class="cls-13" d="M547.35,699.24c21.5,15.42,35.64,34.34,43.45,58,2,6.08,2.1,11.76-4.68,14.38-7.12,2.76-9.63-2.84-11.65-8.13-2-5.1-3.67-10.29-5.45-15.45-2.84-8.2-5.12-16.65-8.6-24.57S552.31,708.32,547.35,699.24Z"/><path class="cls-13" d="M487.16,703.69c-2.63,13.54-5.4,24.86-6.92,36.34-2,15.24,0,30.23,5,44.84a49,49,0,0,1,2.49,13.07c.11,1.95-1.93,4-3,6-1.86-1.44-4.85-2.55-5.37-4.37a128.93,128.93,0,0,1-4.27-20.37C472.15,753.73,476.16,729.25,487.16,703.69Z"/><path class="cls-15" d="M517.07,689.38c13.49,29,18.29,58.19,12.29,88.81-.52,2.66-4.06,4.74-6.19,7.09-1.12-2.8-3-5.56-3.16-8.41-.19-3.38.9-6.89,1.83-10.24,6-21.85,4.69-43.4-2.26-64.79-1.15-3.54-2.25-7.1-3.35-10.66C516.18,691,516.42,690.74,517.07,689.38Z"/><path class="cls-15" d="M472.06,679.5c-5.57,10.45-12.69,20.4-16.28,31.5-4.31,13.31-5.68,27.58-8.17,41.47-.66,3.65-.21,7.58-1.33,11-.68,2.13-3.36,3.61-5.15,5.38-1.33-2.18-2.79-4.29-3.95-6.56a5.85,5.85,0,0,1-.05-3A137.53,137.53,0,0,1,472.06,679.5Z"/><path class="cls-13" d="M416,746c-1.79,3.1-4,6-5.32,9.33-7.87,19.81-15.44,39.74-23.38,59.53-1,2.43-3.54,4.22-5.36,6.31-.61-2.76-2.36-5.86-1.64-8.22,6.69-22,15.77-42.94,29.62-61.53,1.56-2.1,3.28-4.09,4.92-6.13Z"/><path class="cls-6" d="M1433.77,352.55c-6.26-61.08-28.9-114.69-67.92-161.54-4.52-5.43-7.68-12.18-10.53-18.73-2.13-4.87-1-10.11,2.33-14.55,3.49-4.71,7.28-5.72,11.71-1.86A83.86,83.86,0,0,1,1383,170.51c19,27,31.1,57.33,40.16,88.9,8,28,12.45,56.56,11.64,85.79,0,1.76-.16,3.53-.32,5.28A10.21,10.21,0,0,1,1433.77,352.55Z"/><path class="cls-6" d="M1352.42,346.86c-12.53-6.64-24.75-14-37.65-19.78-24.81-11.2-50.72-14.6-77.51-8.05-1.2.29-2.41.59-3.62.81-3.78.67-7.73,2.14-10.11-2.72s-1.9-10.69,2.78-13.19c5.28-2.81,11.4-5.25,17.27-5.55,27.33-1.41,53,4.57,76,20,7.3,4.9,14,10.74,20.84,16.26,4.54,3.65,8.91,7.51,13.36,11.27Z"/><path class="cls-6" d="M1541.12,209.56c30.5-34.27,67.65-53,114.59-48.18a35.23,35.23,0,0,1,12.38,4.2c4.22,2.22,6.06,6.29,5.1,11.22-1.1,5.71-3.69,7.39-9.4,6.23C1615.14,173.12,1582.33,180.31,1541.12,209.56Z"/><path class="cls-6" d="M1328.85,413.31c-27-6.13-53.61-5.87-80,1.44-15.22,4.22-28.54,12.08-40.76,22-6.85,5.55-9,5.79-12.68,2-4.32-4.4-4.77-10.79.09-15.69a56,56,0,0,1,14.3-10.66c38.91-19.55,78-17.53,117.15-.44A12,12,0,0,1,1328.85,413.31Z"/><path class="cls-6" d="M1598.75,340.84c44.39-3.64,83.09,7.64,113.89,40.72a36.79,36.79,0,0,1,7.8,12.4,15.3,15.3,0,0,1-.64,11c-3.52,6.74-10.26,6.5-14.37-.17-8.53-13.82-18.61-26.25-32.07-35.5a157.77,157.77,0,0,0-68.88-26.8c-1.57-.21-3.14-.45-4.7-.73C1599.51,341.7,1599.3,341.34,1598.75,340.84Z"/><path class="cls-6" d="M1316.7,237.77c-15.91-12.4-33.66-21.13-52.81-27.16a113.4,113.4,0,0,0-62.64-2.06c-1,.26-2.07.46-3.11.67-3.81.8-7.72,2.12-10-2.76s-1.58-10.74,2.92-13.23,10-4.81,15.22-5.21c35.15-2.65,66.12,8,92.84,30.84,6.52,5.58,12.47,11.82,18.69,17.76Z"/><path class="cls-6" d="M1457,442.13c29.74-7.9,58.92-6.53,86.74,6.75,26,12.42,48.42,29.73,64.92,53.78,3.44,5,5.75,10.87,8.24,16.49,1.34,3,1.51,6.37-2.11,8.3-3.92,2.08-5.41-1.38-7.08-3.62-9.26-12.44-17.7-25.56-27.7-37.36-31.2-36.83-72.09-48.67-118.83-44.43-1.05.09-2.11.21-3.16.27A4.55,4.55,0,0,1,1457,442.13Z"/><path class="cls-6" d="M1415.43,442a178.49,178.49,0,0,0-50.73,2c-33.45,6.31-59.27,24.57-79.71,51-6.68,8.64-12.47,18-18.88,26.83-2,2.75-3.37,7.81-8.09,5.71-5.44-2.42-3.16-7.31-1.54-11.06a70.92,70.92,0,0,1,7.75-14.39c23.4-31.24,53.19-53.38,91.75-62.14C1375.9,435.4,1395.86,436.5,1415.43,442Z"/><path class="cls-6" d="M1455.19,295.27c1.91-10.79,4.32-21.52,5.65-32.38,5-40.77.36-80.69-11.31-119.95a60.41,60.41,0,0,1-2.14-15.57c-.05-2,2-5.14,3.69-5.58s4.93,1.59,5.7,3.33c2.6,5.92,5.32,12,6.36,18.35,6.66,40.37,8.15,80.85.43,121.26-2,10.36-5,20.51-7.59,30.75Z"/><path class="cls-6" d="M1552.73,285.31c7.25-4.84,14.3-10,21.79-14.46,37.37-22.21,78.09-35.06,120.73-42.23,4.91-.83,10.19-.09,15.2.62,1.83.26,4.79,2.65,4.71,3.93-.11,2-2,4.8-3.83,5.46a50.22,50.22,0,0,1-14.29,3.24c-43.79,2.26-85.45,12.46-124.34,33-6.6,3.5-12.88,7.6-19.31,11.42Z"/><path class="cls-6" d="M1441.32,449.18c14.65,6.13,24.54,17.13,31.56,30.75,8.8,17.07,14.77,35.1,16.47,54.36.25,2.79.46,5.83-.4,8.39-.72,2.16-2.85,5.13-4.64,5.34-2.23.26-5.81-1.32-6.91-3.21-2.07-3.55-3.15-7.82-4-11.93-2.64-13-4.61-26.07-7.52-39C1462,476.7,1454.8,461.17,1441.32,449.18Z"/><path class="cls-6" d="M1424.62,449.12c-14.77,6.63-29,14.31-40.44,25.77A135.78,135.78,0,0,0,1364.57,499c-7.64,12.34-8.64,25.93-2.61,39.6,1.36,3.09,3.32,7.27-.22,8.94-2,.94-6.69-1.44-8.78-3.64-5.43-5.73-5.82-13.22-4.13-20.47,5.85-25.12,20.55-44.22,41.32-58.9A96.41,96.41,0,0,1,1424.62,449.12Z"/><path class="cls-6" d="M1329.31,169.31c-5-6.86-9.31-13.47-14.32-19.5-9.49-11.44-21.43-19.24-36.11-22.54-2.67-.6-6-.88-5.26-5.07.66-3.8,3.31-5.22,6.86-5.2a12.1,12.1,0,0,1,4.13.73C1308.66,126.74,1322.38,144.68,1329.31,169.31Z"/><path class="cls-12" d="M1442.87,422.88c-1.23-29.92,5.22-58.15,21-83.48,21.57-34.58,48.22-64.94,81.1-89.3,8-5.92,17.21-10.29,26.21-14.67,4.14-2,10-3.68,12.88,1.5,2.7,5-2.54,8-5.84,10.55-15.34,11.62-31.09,22.69-46.39,34.36a318.11,318.11,0,0,0-55.87,54C1457,359.64,1444.72,386.82,1442.87,422.88Z"/><path class="cls-12" d="M1433.54,428.35c-2.94-23.32-10.28-45-23.11-64.8-11.08-17.09-25.64-31-40.83-44.25-22.86-19.95-48.56-35.83-74.38-51.55a91.48,91.48,0,0,1-13.16-9.73c-1.5-1.34-2.75-4.74-2.06-6.28s4-3.4,6-3.17a56,56,0,0,1,15.29,3.67c21.07,9,39.17,22.75,55.41,38.53,15.92,15.47,31.44,31.58,45.41,48.81C1422.83,365.19,1432.24,395.51,1433.54,428.35Z"/><path class="cls-12" d="M1450.88,433.75a135.67,135.67,0,0,1,81-63.69c33.19-9.5,66.82-13.39,101.15-8.2,6.76,1,13.37,3.16,20,5.07,2.5.72,5.24,1.77,7,3.52,2.2,2.17,3.5,5.23,5.19,7.91-2.81.87-5.73,2.75-8.41,2.45-14.74-1.65-29.4-4.1-44.14-5.77-25-2.83-50.2-3.22-75,1.9-33.31,6.87-60.09,24.75-81.39,51.07-1.44,1.78-2.88,3.57-4.33,5.34C1452,433.44,1451.78,433.44,1450.88,433.75Z"/><path class="cls-12" d="M1420.27,431.27c-9.61-9.09-19.88-20.33-31.67-29.65-24.24-19.17-52.66-27-83.3-28.21-27.7-1.09-55,2.33-82.18,6.72a59.22,59.22,0,0,1-11.59.74c-4.55-.17-6.11-3.32-3.15-6.74a25.88,25.88,0,0,1,8.4-6.13c11.36-5.34,23.65-7.1,36-7.86,36.62-2.24,72.34,2.4,106.26,16.72C1386.07,388.27,1406.24,407.87,1420.27,431.27Z"/><path class="cls-12" d="M1277.4,432.05a163.29,163.29,0,0,0-42.67,59.4c-6.86,16.25-9.18,33.27-8.13,50.8.49,8.33-.5,10.51-5.29,11.39-6.24,1.15-12-1.9-12.93-8.7a71,71,0,0,1,.31-22.49c7.83-40.64,31.84-69.59,66.84-90.25C1275.78,432.05,1276.18,432.14,1277.4,432.05Z"/><path class="cls-12" d="M1344.91,471.64c-11.19,19.27-17.41,39.3-20.36,60.44a112.94,112.94,0,0,0,7.31,59.23c.6,1.47,1.22,2.94,1.74,4.44,1.15,3.33,2.89,6.82-1,9.53s-8.54,3.89-12.28.63a27.35,27.35,0,0,1-7.55-10.5c-5.43-14.71-5.79-30.17-4.4-45.53,2.68-29.55,15.68-54.67,34.65-77A11.64,11.64,0,0,1,1344.91,471.64Z"/><path class="cls-12" d="M1582.58,421.32c33.5,4,64,15.39,87.43,41.31a169.67,169.67,0,0,1,17.5,23.8c2.49,4,3.54,9.18,4.12,14,.62,5.08-2.45,8.67-7.29,10.43-4.08,1.47-7.26.57-9-3.75-2.07-5.06-4-10.18-6.32-15.12-12.07-25.92-32.54-43.6-57-57C1602.44,429.73,1592.24,425.76,1582.58,421.32Z"/><path class="cls-12" d="M1552.67,320.92c29-22.51,60.61-35.36,97.52-31.67a141.08,141.08,0,0,1,24.33,4.77c4,1.15,7.77,4.05,11,6.87,3.6,3.11,3.68,7.45,1.7,11.69s-4.77,5.49-9.43,3.68c-8.86-3.45-17.76-7-26.93-9.43-21.61-5.75-43.18-3.39-64.35,2.47C1575.25,312.42,1564.34,316.87,1552.67,320.92Z"/><path class="cls-12" d="M1413.8,170.88a168.82,168.82,0,0,0-32.23-66.62c-10.75-13.51-24.33-23.42-39.77-30.94-7.74-3.77-9-5.77-7.14-10.72,2.12-5.72,7.67-8.46,14.33-6.52a33.92,33.92,0,0,1,10,4.52C1397.12,87.54,1413.17,125.48,1413.8,170.88Z"/><path class="cls-12" d="M1520.44,475.09A127.55,127.55,0,0,1,1554.85,513c14.09,23.44,20,48.83,17.08,76-.39,3.72-2.07,7.48-3.88,10.81-2.25,4.12-6.29,5.48-10.91,4.77-5.18-.79-7.08-3.16-6.29-8.39.9-5.92,2.46-11.76,3.15-17.7,4.42-38.1-9.5-70.57-31.25-100.57C1522,477,1521.21,476.05,1520.44,475.09Z"/><path class="cls-12" d="M1500.47,221.81c4-11.74,8.44-22.86,11.5-34.35,8-30,7.22-59.42-6.69-87.82-1.86-3.79-4-7.86,1.12-11.15,4.6-2.95,10.56-2.94,13.92,1.49s6.37,9.53,7.68,14.81C1538.8,148.27,1527.66,186.75,1500.47,221.81Z"/><path class="cls-12" d="M1390.59,292.63c-18.93-35.61-45.2-64.84-76.66-89.58-8.87-7-18.56-12.88-27.7-19.5a61.31,61.31,0,0,1-10.63-9.36c-1.41-1.64-1-4.8-1.46-7.27,2.47-.37,5.4-1.77,7.34-.92,5.28,2.31,10.66,4.93,15.09,8.55,25.85,21.09,49.31,44.59,68.16,72.2,8.73,12.78,15.77,26.71,23.5,40.16A44.91,44.91,0,0,1,1390.59,292.63Z"/><path class="cls-12" d="M1411.62,490.38c-2.53,7.9-5.52,15.79-7.58,23.92a63.35,63.35,0,0,0,3.12,41.53c1,2.32,2.64,5.13-.79,6.93-3.28,1.73-6.54,1.07-8.24-2.18a35.32,35.32,0,0,1-3.84-10.86C1390.89,527.22,1397.35,507.53,1411.62,490.38Z"/><path class="cls-6" d="M1259.11,274.35c-12.23-2-24.46-2.39-36.73,0a64.71,64.71,0,0,0-26.26,11.84c-2.27,1.66-4.75,4.49-7.66.86s-1.8-7.45,1.44-9.16c7.39-3.88,15-7.85,23-9.86C1228.88,264,1244.32,267.3,1259.11,274.35Z"/><path class="cls-6" d="M1693.63,268c23.81-6.46,45-4.07,64.32,9.57a23.1,23.1,0,0,1,7,8.84c.67,1.39-1.15,4.48-2.6,6.13-.56.62-3.88-.05-4.87-1.12-16.63-18.09-37.93-23.46-61.46-23C1695.67,268.45,1695.33,268.32,1693.63,268Z"/><path class="cls-11" d="M1298,1022.9c-2.44.92-4.85,2.5-7.34,2.64-8.49.5-17.08,1.33-25.49.51-22.69-2.22-45.3-5.22-68-7.93a3.19,3.19,0,0,1-2-1c6.23-.39,12.45-.84,18.68-1.14,22.56-1.08,45.12-2.21,67.65.37a76,76,0,0,1,11.26,2.32c1.83.51,3.43,1.81,5.14,2.75C1298,1021.91,1298,1022.41,1298,1022.9Z"/><path class="cls-11" d="M1228.17,893.66c3.92-2.49,7.7-5.26,11.8-7.42,8.59-4.54,17.25-9,26.09-13,2.71-1.23,6.08-1.37,9.14-1.34,2.84,0,3.94,2.35,2.09,4.47-2,2.29-4.49,4.67-7.25,5.66-10.27,3.66-20.72,6.85-31.15,10-3.39,1-7,1.5-10.43,2.23C1228.36,894.09,1228.26,893.88,1228.17,893.66Z"/><path class="cls-11" d="M962.88,1125.41c-5,9.1-9.69,18.41-15.13,27.25q-14,22.69-28.79,44.84c-2.89,4.3-7.15,7.7-11,11.34-.8.77-2.36.76-3.57,1.1-.24-1.34-1-2.89-.61-4,1.42-3.93,2.63-8.14,5-11.48q16.59-23.32,33.85-46.16c6.13-8.08,13-15.59,19.53-23.36Z"/><path class="cls-11" d="M978.42,904.46c-1.08-1.24-2.16-2.47-3.23-3.72-15.79-18.45-31.49-37-44.77-57.39a150.65,150.65,0,0,1-8.62-15.79c-1-2.14-1.21-4.72-1.77-7.1l1-1.05c1.79.85,4,1.28,5.29,2.61,4.23,4.41,8.81,8.71,12,13.83,12,19.24,23.62,38.77,35.31,58.23,1.94,3.24,3.56,6.67,5.33,10Z"/><path class="cls-11" d="M887,987.81c-17.27.62-34.54,1.71-51.8,1.71-13.43,0-26.86-1.21-40.26-2.23-3.82-.29-7.83-1.16-10.66-4.51,1.85-3.29,5-3.76,7.89-3.92,7.54-.43,15.19-1.22,22.66-.47,23.3,2.34,46.54,5.32,69.81,8.07.8.09,1.59.29,2.38.44C887.05,987.2,887,987.5,887,987.81Z"/><path class="cls-11" d="M861.7,858.21c2.34.63,4.94.81,7,2,6.67,3.79,13.59,7.35,19.61,12,20.92,16.33,41.51,33.09,62.22,49.69l-.74,1.07a5.3,5.3,0,0,1-1.4-.42c-22.37-14.29-44.84-28.42-67-43-6-3.93-11.15-9.11-16.48-13.95-1.75-1.58-2.83-3.91-4.21-5.89Z"/><path class="cls-11" d="M1046.56,1108.49c2,6.31,3.75,12,5.46,17.73,7.11,23.81,14.24,47.63,18.11,72.24a105.11,105.11,0,0,1,1,12.91c.06,1.82-.59,3.66-.92,5.49l-1.29.48c-1.27-1.68-3.11-3.19-3.72-5.09-2.71-8.3-6-16.58-7.37-25.14-4.27-25.69-7.79-51.5-11.59-77.26A6.62,6.62,0,0,1,1046.56,1108.49Z"/><path class="cls-11" d="M1115.84,1042.16c17.05,10.7,34.31,21.07,51.07,32.2,10.77,7.16,20.91,15.3,31.09,23.32,2.86,2.25,4.86,5.6,7.25,8.44l-1,1.55c-2.21-.46-4.66-.45-6.58-1.47a160.35,160.35,0,0,1-16.45-9.59c-23.36-16.14-44.64-34.85-66-53.5Z"/><path class="cls-11" d="M1235.57,921.33c-2.18,1.66-4.14,3.86-6.59,4.87-8.2,3.37-16.38,7.08-24.92,9.28-24.41,6.29-49,11.91-73.5,17.78-.18,0-.41-.1-1.17-.31,7.74-3.15,15-6.2,22.39-9.1,22.35-8.8,44.66-17.72,68.16-23.1a75.09,75.09,0,0,1,10.7-1.38,19.4,19.4,0,0,1,4.4.67C1235.22,920.47,1235.4,920.9,1235.57,921.33Z"/><path class="cls-11" d="M1017.76,893.17c-.78-5.15-1.79-10.29-2.28-15.48-1.73-18.53-3.41-37.07-4.83-55.63a57.79,57.79,0,0,1,1-12.55c.3-2.09,1.48-4.06,2.26-6.09l1.47-.08c1.06,2,2.62,4,3.06,6.12a100.51,100.51,0,0,1,2.21,15.31C1021.78,847.6,1020.24,870.35,1017.76,893.17Z"/><path class="cls-11" d="M1119,822.41c8.77-22.42,17.76-44.69,30.73-65a74.33,74.33,0,0,1,8-9.66c.68-.75,2.11-.83,3.2-1.22.38,1.2,1.31,2.54,1,3.57a65.07,65.07,0,0,1-3.78,11.58c-8.45,17.63-19.75,33.51-31,49.41C1124.54,814.88,1121.75,818.63,1119,822.41Z"/><path class="cls-11" d="M865.61,1065.61c-6.85,4.33-13.55,8.92-20.58,12.92-13.87,7.87-27.88,15.48-41.93,23a40.09,40.09,0,0,1-8.51,2.82c-1.17.32-2.5.05-5,.05,1.8-2.2,2.75-4.05,4.26-5.08,4.65-3.18,9.25-6.59,14.32-8.93,18.52-8.53,37.22-16.66,55.85-24.93a9.51,9.51,0,0,1,1.29-.37C865.44,1065.28,865.52,1065.44,865.61,1065.61Z"/><path class="cls-11" d="M998.53,809.1c-1.13-3.51-2.3-7-3.38-10.52-6-19.52-12.17-39-15-59.28-.55-3.91-.08-8-.08-11.95l1.5-.56c1.22,1.87,3,3.6,3.56,5.65,2.6,9.35,5.44,18.69,7.12,28.23,2.72,15.48,4.6,31.11,6.82,46.68a11.21,11.21,0,0,1,0,1.64Z"/><path class="cls-11" d="M870.6,910.36c-23.49-4.61-47-9-69.45-17.4a61.47,61.47,0,0,1-8.13-3.83,20.51,20.51,0,0,1-3.39-2.9c.09-.36.17-.73.26-1.09,2-.16,4.21-.84,6.1-.37,9.89,2.44,19.9,4.6,29.5,7.94,14.61,5.1,28.92,11.08,43.35,16.7A14.93,14.93,0,0,1,870.6,910.36Z"/><path class="cls-11" d="M947.58,957.57c-15.52-3.67-31.1-7.1-46.53-11.11-8.57-2.24-16.95-5.3-25.29-8.32-2.87-1-5.37-3.1-8-4.69l.48-1.9c2.5,0,5.14-.54,7.47.09,11.45,3.1,23,6.07,34.18,9.93,12.25,4.22,24.18,9.36,36.24,14.11.65.26,1.26.61,1.89.91C947.86,956.92,947.72,957.24,947.58,957.57Z"/><path class="cls-11" d="M1189.19,1031.78c-2.5,0-5.11.5-7.46-.08-9.07-2.26-18.24-4.34-27-7.45-14.6-5.15-28.94-11-43.39-16.63a2.81,2.81,0,0,1-1.71-1.55c5.89,1.24,11.84,2.26,17.66,3.75,15.59,4,31.17,8,46.67,12.35,4.12,1.15,8,3.24,11.89,5.11a20.73,20.73,0,0,1,3.71,3C1189.42,1030.77,1189.3,1031.28,1189.19,1031.78Z"/><path class="cls-11" d="M1140.47,877.45c16.09-16.69,32.22-33.37,50.75-47.45a76,76,0,0,1,8.48-5.45c1.37-.77,3-1,5.72-1.83-1,2.41-1.27,3.94-2.12,5a53.78,53.78,0,0,1-5.91,6.78C1180,850.86,1160.23,864.13,1140.47,877.45Z"/><path class="cls-11" d="M1076.59,917.67c5.24-9.32,9.65-17.95,14.8-26.12,8.1-12.89,16.6-25.54,25.19-38.12,1.77-2.6,4.67-4.44,7.05-6.63l1.41.87c-.42,2-.46,4.17-1.34,5.92-2.31,4.6-4.54,9.36-7.6,13.45-12.44,16.63-25.17,33-37.81,49.51A11.14,11.14,0,0,1,1076.59,917.67Z"/><path class="cls-11" d="M1027.21,1000.51c-6.94,11.15-13.68,22.43-20.94,33.37-2.18,3.28-5.7,5.72-8.82,8.29-.82.67-2.92.93-3.59.36a4.24,4.24,0,0,1-1.18-3.72,40.12,40.12,0,0,1,4.57-9.62c8.06-11.29,18.38-20.45,28.7-29.58Z"/><path class="cls-11" d="M998.75,959.9c-12.49-3.6-25.06-7-37.43-10.95-3.87-1.24-7.31-4-10.72-6.38a4.06,4.06,0,0,1-1.26-3.68,4.27,4.27,0,0,1,3.44-1.92,29.65,29.65,0,0,1,8.45,1.26c13.78,4.62,25.8,12.54,37.94,20.22Z"/><path class="cls-11" d="M981.12,1010.88c-9.65,12.34-19,24.95-32.3,33.73a14.42,14.42,0,0,1-4.94,2c-3.16.65-4.71-1.07-3.55-4.12a17.64,17.64,0,0,1,3.57-5.74C954.53,1025.64,967.82,1018.27,981.12,1010.88Z"/><path class="cls-11" d="M1037.81,932.2c0-14.22.19-28.42,4-42.23a29.31,29.31,0,0,1,3.85-8.44c1.89-2.86,4.62-2.4,5.46.91a22.51,22.51,0,0,1,.51,8.53C1049.46,905.48,1043.76,918.86,1037.81,932.2Z"/><path class="cls-11" d="M953.63,982.54c4.51,1.84,8.13,3.33,11.78,4.81C959.49,988.94,957.24,988.16,953.63,982.54Z"/><path class="cls-11" d="M1059.48,1057.91c3.56,12.26,9.54,33.21,9.52,33.23s10.64,30.39,14.71,40.24c.92,2.22,3,3.94,4.59,5.9l1.52-.8C1089.75,1123.36,1059.8,1057.8,1059.48,1057.91Z"/><path class="cls-13" d="M1000.65,1072.47c-5.74,26.44-11.84,52.64-21.79,77.7a129,129,0,0,1-8.41,16.26c-.75,1.31-2.74,1.91-4.16,2.84-.52-1.65-1.64-3.37-1.46-5a73.86,73.86,0,0,1,2.38-12.7c6.72-22.64,16.77-43.93,26.74-65.25C996.13,1081.71,998.41,1077.1,1000.65,1072.47Z"/><path class="cls-13" d="M915.17,862.69c-12.72-15.33-25.68-30.46-38-46.08-6.39-8.07-11.82-16.91-17.39-25.59-1.77-2.77-2.71-6.12-3.8-9.28-.3-.88-.1-2.68.41-2.92a3.83,3.83,0,0,1,3.27.22,30.72,30.72,0,0,1,6.6,5.47c5.37,6.62,10.93,13.16,15.48,20.32,11.91,18.72,23.32,37.75,34.92,56.66Z"/><path class="cls-13" d="M1064.77,893.83c5.84-26.14,12-52.21,21.75-77.2,2.14-5.45,5.08-10.59,7.75-15.82a11.22,11.22,0,0,1,2.52-3c2.06-1.84,3.53-1.38,3.88,1.4a16.2,16.2,0,0,1-.25,6.77c-4.2,13-8,26.18-13.17,38.8-6.64,16.21-14.42,32-21.73,47.88A8.88,8.88,0,0,1,1064.77,893.83Z"/><path class="cls-13" d="M1128,987.33c30.17-2,60.25-4.82,90.33-.6a50.05,50.05,0,0,1,9.66,2.74,3.83,3.83,0,0,1,2.12,2.48c.1.56-1.25,1.83-2.13,2.06a52.39,52.39,0,0,1-9.83,2c-17.73,1-35.31-1-52.86-3.16-11.45-1.38-22.86-3.17-34.28-4.8C1130,987.89,1129,987.57,1128,987.33Z"/><path class="cls-13" d="M1215.17,757.35c-.68,2.32-.9,4.92-2.11,6.9-3.94,6.45-7.64,13.19-12.52,18.88-17.28,20.16-35,39.94-52.58,59.85-.27.31-.64.53-1.59.28,10.45-15.5,20.63-31.19,31.45-46.44,7.42-10.47,15.64-20.39,23.71-30.39a60.14,60.14,0,0,1,8.13-7.64,22.33,22.33,0,0,1,4.23-2.3Z"/><path class="cls-13" d="M865.85,887.5c-26.94-15.52-53.15-30.16-77.1-48.4a113.22,113.22,0,0,1-10.69-9.62c-1.34-1.32-2.08-3.24-3.09-4.89l.72-1.14c2.12.42,4.4.47,6.32,1.34a93.39,93.39,0,0,1,12.1,6.34c25.24,16.2,48.07,35.53,70.84,54.91A10.15,10.15,0,0,1,865.85,887.5Z"/><path class="cls-13" d="M1052.24,748.45c.51,3.16,1.72,6.39,1.42,9.47-1.09,11.22-2,22.54-4.23,33.55-4.33,21-9.56,41.89-14.42,62.82a3.28,3.28,0,0,1-1.36,2.13c.53-7.41.79-14.84,1.64-22.21,2.51-21.82,5.09-43.64,8-65.41.71-5.29,2.68-10.43,4.32-15.57.55-1.74,1.84-3.24,2.8-4.85Z"/><path class="cls-13" d="M833.38,1128.26c1-1.68,1.66-3.66,3-5a96.26,96.26,0,0,1,10.43-9.37c23.8-17.68,49.68-32,75.55-46.26.18-.1.45,0,1.08,0a6.06,6.06,0,0,1-.74,1.06c-21.88,18-43.76,36.11-67.72,51.4a140.53,140.53,0,0,1-14.25,7.69c-1.94,1-4.25,1.15-6.39,1.68Z"/><path class="cls-13" d="M935.64,1013.7c-17.23,6.66-34.3,13.76-51.74,19.84-14,4.88-28.46,8.69-42.81,12.58-3.24.88-6.93.13-10.4.13l-.45-1.2c1.41-1.33,2.61-3,4.27-3.92a95.78,95.78,0,0,1,12.72-5.9c28.71-10.2,58.51-16.17,88.2-22.51Z"/><path class="cls-13" d="M1233.47,863.39c-1.23,1.6-2.16,3.65-3.75,4.74A166.73,166.73,0,0,1,1213,878.69c-24.67,12.86-50.58,22.86-76.51,32.78a5.8,5.8,0,0,1-1.28.1c.33-.41.47-.72.7-.85,23.61-13.41,47.13-27,70.91-40.08,5.93-3.28,12.61-5.25,19-7.54,2.13-.75,4.58-.62,6.88-.9C1233,862.6,1233.23,863,1233.47,863.39Z"/><path class="cls-13" d="M868.88,956.49a26.36,26.36,0,0,1-2.78.26c-27.15-.36-54.31-.59-81.46-1.24-6.07-.15-12.12-1.67-18.13-2.85-2.24-.44-4.32-1.73-6.47-2.63,0-.47-.07-.94-.1-1.41,1.84-.78,3.66-2.13,5.53-2.22,8.15-.42,16.39-1.32,24.45-.5,26.4,2.68,52.73,6,79.08,9.12Z"/><path class="cls-13" d="M1014.53,1114.53c-.68,20.15-1,40.33-2.19,60.45-.75,12.68-2.52,25.33-4.38,37.91-.91,6.14,0,5.61-7.63,5.2a27.2,27.2,0,0,1-.44-5.11c1.45-16.14,2.48-32.33,4.67-48.37s5.54-31.71,8.4-47.55a23,23,0,0,1,.79-2.65Z"/><path class="cls-13" d="M1202.41,955c18.29-5.13,36.52-10.42,55.66-10.78a45.45,45.45,0,0,1,10.26,1.42,3.88,3.88,0,0,1,2.59,2.5,4,4,0,0,1-2,3.07,31.43,31.43,0,0,1-8,3C1241.48,957.64,1222,956.18,1202.41,955Z"/><path class="cls-13" d="M1141,1095.63c16.76,17.36,33.77,34.53,47.39,54.59,2.22,3.26,3.72,7,5.55,10.54l-1.19,1.15c-1.4-.64-3-1-4.15-2a82.9,82.9,0,0,1-8.46-8.3C1165.3,1134.23,1153.06,1115,1141,1095.63Z"/><path class="cls-13" d="M1105.78,1136.49c11,21.18,22,42.27,29.35,65a65.33,65.33,0,0,1,2,9.12,19.07,19.07,0,0,1-.2,4.11l-1.1.56c-1.49-1.72-3.41-3.22-4.37-5.19-3.16-6.46-6.53-12.9-8.82-19.69-5.81-17.29-11.09-34.76-16.57-52.17A14.07,14.07,0,0,1,1105.78,1136.49Z"/><path class="cls-13" d="M988.66,1049.67q-8.56,14.49-17.13,29c-4,6.65-7.67,13.48-12,19.88-4,6-8.63,11.51-13.17,17.08-1.19,1.46-3.08,2.35-4.65,3.5l-.94-.62a17.39,17.39,0,0,1,.6-4.32,62,62,0,0,1,4.16-8.75c12.23-20.2,27.39-38.2,42.25-56.43Z"/><path class="cls-13" d="M927.61,742.74c1.59,1.94,3.67,3.66,4.66,5.87,3.74,8.31,7.61,16.61,10.52,25.21,5.3,15.67,9.94,31.55,14.14,47.7a3.28,3.28,0,0,1-.7-.8c-8.86-19.82-17.9-39.57-26.41-59.54-2.11-5-2.53-10.66-3.66-16a4.54,4.54,0,0,1,.34-1.72Z"/><path class="cls-13" d="M1260.54,1086.57c-2.9,0-6,.67-8.66-.11-13.91-4.06-27.82-8.2-41.52-12.9a257.94,257.94,0,0,1-29.82-12.64c8,1.72,16.14,3.12,24.06,5.23q23.26,6.19,46.34,13.13c3.6,1.09,6.79,3.54,10.17,5.36C1260.91,1085.28,1260.73,1085.93,1260.54,1086.57Z"/><path class="cls-13" d="M830.73,1024c-9.07,1.39-18.1,3.07-27.21,4.08-14.06,1.56-28.15,2.73-42.25,3.89a43,43,0,0,1-9-.59,29.57,29.57,0,0,1-4.93-1.47c-.06-.46-.13-.91-.19-1.36,2.31-1,4.54-2.48,6.93-2.77,9.27-1.12,18.57-2.36,27.89-2.61,15.59-.42,31.2-.12,46.8-.1a13.85,13.85,0,0,1,1.91.24C830.72,1023.51,830.73,1023.74,830.73,1024Z"/><path class="cls-13" d="M914,1126.68q-4.59,6.79-9.18,13.58c-10.49,15.56-21.1,31-34.06,44.68-2.63,2.76-5.86,5-8.81,7.4l-1.55-1c.64-2,.89-4.28,2-6,3.1-4.85,6.12-9.85,9.92-14.14,11.46-13,23.26-25.62,34.94-38.38,2-2.22,4.08-4.4,6.12-6.59Z"/><path class="cls-13" d="M1005.55,907.83c-11-23-22.8-45.5-28.94-70.3-.64-2.56-.5-5.31-.73-8l1.33-.63c1.36,1.47,3.14,2.74,4,4.47,2.63,5.25,5.47,10.51,7.21,16.08,5.94,19,11.45,38.19,17.11,57.31A3.6,3.6,0,0,1,1005.55,907.83Z"/><path class="cls-13" d="M1068.11,992.32c3.15,1.87,6.45,3.52,9.41,5.64,8.48,6,16.91,12.18,25.15,18.55a21,21,0,0,1,5,6.47c.69,1.23.9,3.72.15,4.48s-3.26,1-4.57.45a27.44,27.44,0,0,1-8-4.71c-5.79-5.38-11.38-11-16.76-16.79-3.93-4.24-7.38-8.92-11-13.4Z"/><path class="cls-13" d="M1073,955.48c9.67-9.09,19.19-18.35,29.1-27.17,2.85-2.54,6.77-4,10.35-5.56,1-.43,3-.09,3.56.64a4.26,4.26,0,0,1,.16,3.91,36.46,36.46,0,0,1-6.37,7.65c-10.79,9.11-23.32,15.41-35.8,21.76Z"/><path class="cls-13" d="M1014,955.33c-10.6-8.53-20.67-17.47-28.62-28.43a39.25,39.25,0,0,1-5.2-10.17c-1.16-3.39,1.27-5.44,4.35-3.63a26,26,0,0,1,8.36,7.15c6,8.82,11.48,18,17.05,27.12C1011.49,949.9,1012.66,952.67,1014,955.33Z"/><path class="cls-13" d="M1042.67,1029c4.91,14.23,10.2,28.37,11.15,43.62a20.23,20.23,0,0,1-.79,6.74c-1,3.25-3.5,3.73-5.53,1a15.67,15.67,0,0,1-3-6.44,215.34,215.34,0,0,1-2.66-21.74c-.45-7.65-.1-15.35-.1-23Z"/><path class="cls-13" d="M940.93,978.08h0c-1.16-.34-2.31-.65-3.47-.91a136.12,136.12,0,0,0-18.36-3,2.86,2.86,0,0,0-.77,0,4.14,4.14,0,0,0-1.37,7.58,2.88,2.88,0,0,0,.72.32,157.31,157.31,0,0,0,17.17,4h0c18.21,4.55,30.54,1.2,30.54,1.2C958.51,982.89,940.93,978.08,940.93,978.08Z"/><path class="cls-11" d="M1093.69,723.3s-2.94-3.14-4.33,0-9.17,10.54-17.67,47.46h0c-.31,1.42-.62,2.82-.92,4.23h0c-3.29,15.08-6.53,29.94-9.77,44.78a3.3,3.3,0,0,0,1.79-1.9c5.25-12.57,10.57-25.11,15.72-37.71l.08-.16s12.39-29.65,13.38-38.89h0C1093.52,735.31,1094.87,729.48,1093.69,723.3Z"/><path class="cls-11" d="M1145.05,1142.23c-2.15-5.06-4.13-10.28-7-15-8.63-14.22-18.78-27.32-29.29-40.14h0l-.07-.09c-3.25-4-6.54-7.91-9.83-11.85a3.36,3.36,0,0,0-.55-.51l-1.17-1.39v0l-10.07-11.91q.6,1.79,1.32,3.48h0l0,0c1.15,2.77,8.68,16.55,10.07,19.1l0,0h0c2,3.64,4,7.25,6.24,10.73q13.89,21.67,28.32,43c2,2.9,5,5.16,7.77,7.42.93.75,2.63.56,4,.8C1144.94,1144.72,1145.49,1143.26,1145.05,1142.23Z"/><path class="cls-13" d="M1682.52,997.12l0-3.24-2.68-1.82a.44.44,0,0,1,.11-.79l3.07-1,.9-3.11a.45.45,0,0,1,.79-.14l1.92,2.61,3.24-.11a.44.44,0,0,1,.38.7l-1.89,2.64,1.11,3a.44.44,0,0,1-.55.57l-3.1-1-2.55,2A.45.45,0,0,1,1682.52,997.12Z"/><path class="cls-13" d="M2161.56,798.77c-43-66.83-94.84-126.19-153-180.11a1146.59,1146.59,0,0,0-188.4-142.37c2,.64,4,1.26,6,1.91a479.71,479.71,0,0,1,60.12,24.12,487.13,487.13,0,0,1,83.12,51.53,508.74,508.74,0,0,1,63.12,56.58c12.36,13.21,25.05,26.22,36.23,40.39,15.65,19.84,30.57,40.31,44.78,61.2,11.15,16.39,21,33.67,30.94,50.87,6.54,11.37,12.08,23.32,18.06,35Z"/><path class="cls-13" d="M2611.35,698.79a909.62,909.62,0,0,0-208.53,33.45c-68.07,19.21-132.89,46.19-192.8,84.32l-.59-.95c4.77-4.14,9.39-8.49,14.35-12.39,8.55-6.7,17.18-13.31,26-19.64,18.45-13.22,37.44-25.63,57.71-35.9,14.43-7.31,28.86-14.68,43.63-21.24A432.77,432.77,0,0,1,2434.8,699c36.54-8,73.55-11.75,111-9.61A357.72,357.72,0,0,1,2611.35,698.79Z"/><path class="cls-15" d="M1798.74,715.53c17.54-2.16,35-4.58,52.61-6.4,22.09-2.29,44.26-1.38,66.18,1.53a461.73,461.73,0,0,1,52.86,10.24c15.64,4,30.84,9.72,46.13,15,21.41,7.41,41.63,17.54,61.13,28.91,15.74,9.16,31,19.28,45.92,29.69,10.58,7.36,20.33,15.91,30.45,23.94a8,8,0,0,1,2.3,2.43c-109.88-66.95-230.27-97.32-357.51-104.07C1798.79,716.39,1798.77,716,1798.74,715.53Z"/><path class="cls-15" d="M2156.23,834.83c-7.07,0-14.19-.48-21.22.09-19.28,1.57-38.59,3.13-57.78,5.52A437,437,0,0,0,2004.62,856c-21.85,6.59-43.67,13.41-65.1,21.23-18.63,6.8-36.78,15-55,22.83a630.49,630.49,0,0,0-71,36.73c-1,.6-2.12,1-3.88,1.84,81.14-81.12,213.25-129.16,346.4-104.85Z"/><path class="cls-13" d="M2206,852.63c128.85,49.58,219.58,139.13,275.73,264.83-4.45-6.23-8.67-12.64-13.38-18.67-16.56-21.19-32.84-42.64-50.09-63.26-14-16.79-28.79-33.08-44.22-48.61-18.76-18.89-38.32-37-58-54.94A422.75,422.75,0,0,0,2280,902.46c-16.81-12.2-34.3-23.5-51.67-34.91-7.57-5-15.58-9.3-23.39-13.92Z"/><path class="cls-15" d="M2201.33,801.46c3.9-6.17,7.48-12.58,11.77-18.46,12.34-16.91,24.4-34.07,37.62-50.27a428.32,428.32,0,0,1,61.46-61.93c15.18-12.33,30.74-24.29,46.91-35.28a361.92,361.92,0,0,1,141.24-56c.24,0,.51.13.79.21C2385.18,632,2283.5,703.44,2201.33,801.46Z"/><path class="cls-15" d="M2397.09,492.67C2309.37,579.1,2238.36,677.11,2189.83,791a42.76,42.76,0,0,1,.79-4.66A640.74,640.74,0,0,1,2216,714.43a544.47,544.47,0,0,1,34.56-68.88,473.72,473.72,0,0,1,29.6-44.4c12.67-16.63,25.9-33,40.44-48,13.58-14,28.86-26.45,44-38.82,10.06-8.21,21.23-15.08,31.9-22.55Z"/><path class="cls-15" d="M2203,859.37c7.89,6.62,15.95,13.06,23.64,19.92a392.52,392.52,0,0,1,53.14,58.49c16,21.39,30.33,43.88,42,67.9,8.27,17,16.43,34,23.55,51.49a472.2,472.2,0,0,1,22.63,69.39c3.52,14.83,6.76,29.74,10.1,44.61a5.11,5.11,0,0,1-.06,2.45c-18-57.9-42.65-112.8-72.61-165.4a970.35,970.35,0,0,0-103.23-148Z"/><path class="cls-15" d="M2218.61,831.23c44.49-9.64,89.21-9.23,133.78-.89,65,12.15,122,40.68,170.67,85.78-5.91-3.18-11.67-6.68-17.74-9.5-21.3-9.91-42.58-19.87-64.12-29.26-12.33-5.37-25-10.11-37.75-14.33-15.61-5.17-31.33-10.24-47.32-14-21.85-5.12-43.89-9.68-66.06-13.15A407,407,0,0,0,2218.61,831.23Z"/><path class="cls-13" d="M2502.81,816.57c-90-20-179.83-23.33-269.38,2.9C2279,796.72,2327,784.58,2378.07,785,2422.29,785.38,2463.75,796.2,2502.81,816.57Z"/><path class="cls-13" d="M2159.17,852c-76.85,65.8-140.8,141.6-186.48,232.31,2.41-6.68,4.36-13.56,7.29-20,8.83-19.4,17.6-38.85,27.21-57.86S2029,970.15,2041.58,953a352.26,352.26,0,0,1,39.94-45.75c19-18.29,39.68-34.37,62.79-47.21C2149.23,857.3,2154.21,854.69,2159.17,852Z"/><path class="cls-15" d="M2155.3,806.64c-69.27-65.53-145.32-120.2-238-148.84,22.58-3.09,100.72,25,135.68,47.7A347.44,347.44,0,0,1,2155.3,806.64Z"/><path class="cls-13" d="M2179.17,859a1019.35,1019.35,0,0,0-35.47,158c-7.68,53.73-11.16,107.67-7.32,162-7.93-13.74-11.43-115.33-5.66-163.88C2137.72,956.18,2156.63,897.93,2179.17,859Z"/><path class="cls-13" d="M2173,792.19c-3.88-53.36-10.78-106.27-22.16-158.53s-26.64-103-48.53-151.77C2159.74,577.61,2184.85,680.73,2173,792.19Z"/><path class="cls-15" d="M2224.9,847.22c5.25.13,10.52-.11,15.72.43a318.44,318.44,0,0,1,68.55,14.7c19.9,6.69,39.41,14.53,57.3,25.61,14.77,9.14,29.38,18.69,43.19,29.21a268.16,268.16,0,0,1,42,40.41c3.36,4,6.75,7.93,9.72,12.2-10.68-8.07-21.23-16.32-32.07-24.17-24-17.4-48.95-33.45-75.34-47.05-16.31-8.4-32.79-16.59-49.64-23.82a409.16,409.16,0,0,0-74.43-24.14,12.44,12.44,0,0,1-2.8-1.45Z"/><path class="cls-13" d="M1861.19,789.92c6.54-2.17,13-4.69,19.63-6.44a301.51,301.51,0,0,1,80-10.33c25.89.23,51.38,3.48,76.06,11.47,12.26,4,24.19,9,36.24,13.58a44.48,44.48,0,0,1,4.14,2.14c-12.35-2-24-4.08-35.64-5.76a559.41,559.41,0,0,0-100.75-5.2c-22.21.82-44.36,2.64-66.25,6.85a49.82,49.82,0,0,1-6.49.44Z"/><path class="cls-15" d="M2134.67,431.61c45.31,78.46,64.4,162.54,54,252.91C2183.25,597.52,2168.45,512.52,2134.67,431.61Z"/><path class="cls-15" d="M1970.46,958c44.93-66.23,106.75-105.6,186.2-116.9C2084.48,864,2024.79,906.72,1970.46,958Z"/><path class="cls-13" d="M1887.59,967.24c45.67-60,107.51-94.28,179.48-112.42C2002,883.92,1942.87,922.39,1887.59,967.24Z"/><path class="cls-15" d="M2164.45,783.11c-21.76-74.43-51.41-145-98.4-207.3Q2152.18,661.9,2164.45,783.11Z"/><path class="cls-15" d="M2195.62,861.82c35.19,66.76,49.47,137.26,37.91,212.38C2231.63,1001.49,2221.55,930.24,2195.62,861.82Z"/><path class="cls-13" d="M2188.46,750.38c3-59.78,30.14-141.84,79.78-190.19-8.46,14.86-17.48,29.71-25.52,45.08s-15.68,31.09-22.47,47.09-13,32.58-18.41,49.25S2192.6,735.09,2188.46,750.38Z"/><path class="cls-13" d="M2467,513.26c-58.47,23.86-110.67,57-154,103.41a257.77,257.77,0,0,1,66.17-68.54C2405.56,529.45,2434.45,516.76,2467,513.26Z"/><path class="cls-13" d="M2536.25,984.64c-43.93-46-92.5-85.59-153.15-109.06C2437.84,884.07,2501.24,923.77,2536.25,984.64Z"/><path class="cls-15" d="M2429.89,747.14c26.26-9.74,53.43-13.38,81.28-11.78a186.71,186.71,0,0,1,95,32.16C2548.89,748.05,2490.57,737.59,2429.89,747.14Z"/><path class="cls-13" d="M2017.5,714.22c-51.81-20.47-103.82-36.7-158.5-44.9C1890,661,1991.18,689.53,2017.5,714.22Z"/><path class="cls-13" d="M1861.19,789.92l7,6.75c-6.28,1.61-12.59,3.1-18.83,4.85-12.82,3.6-25.6,7.34-38.4,11a2.44,2.44,0,0,1-2.28-.28c3.68-1.92,7.24-4.1,11-5.72,12.86-5.5,25.8-10.82,38.73-16.16A12,12,0,0,1,1861.19,789.92Z"/><path class="cls-15" d="M2166.24,857.77c-5.51,5.42-11.4,10.5-16.47,16.3-16,18.34-32.5,36.35-47.3,55.65-12.87,16.78-24.14,34.85-35.28,52.87a460.64,460.64,0,0,0-23.73,43.26c-8.73,18.25-16.89,36.84-24,55.76-6.86,18.15-12.7,36.75-17.91,55.44-4.57,16.36-7.92,33.08-11.28,49.75-1.76,8.73-2.4,17.69-3.55,26.54l-3.63,23.31,1.47.27q2.43-10.32,4.87-20.65h0a24.3,24.3,0,0,0,1.76-3.54c3.1-9.85,5.89-19.81,9.25-29.57,6.42-18.64,12.74-37.33,19.87-55.7,9.1-23.45,18.69-46.71,28.58-69.83,5.78-13.5,12.32-26.69,18.95-39.8,9-17.7,17.9-35.43,27.64-52.7q13.21-23.42,28.22-45.82c11.71-17.49,24.27-34.41,36.49-51.55,2.25-3.15,4.66-6.19,7-9.28Z"/><path class="cls-15" d="M2224.9,847.22l2.16,1.93c-3.51-.41-7-.77-10.53-1.23a5.6,5.6,0,0,1-3.48-1.68Z"/><path class="cls-13" d="M2028.92,515.68l-.07-10-8.27-5.59a1.38,1.38,0,0,1,.33-2.44l9.47-3.16,2.76-9.58a1.37,1.37,0,0,1,2.42-.44l5.93,8,10-.34a1.38,1.38,0,0,1,1.16,2.17l-5.8,8.12,3.4,9.38a1.38,1.38,0,0,1-1.71,1.78l-9.51-3-7.87,6.13A1.37,1.37,0,0,1,2028.92,515.68Z"/><path class="cls-15" d="M1764,736.6l-.08-10-8.26-5.59a1.37,1.37,0,0,1,.33-2.44l9.47-3.16,2.76-9.59a1.37,1.37,0,0,1,2.42-.43l5.93,8,10-.33a1.37,1.37,0,0,1,1.17,2.17l-5.81,8.12,3.4,9.38a1.37,1.37,0,0,1-1.7,1.77l-9.51-3-7.87,6.14A1.38,1.38,0,0,1,1764,736.6Z"/><path class="cls-13" d="M1821.84,996l0-5.79L1817,987a.79.79,0,0,1,.19-1.41l5.49-1.83,1.61-5.57a.79.79,0,0,1,1.4-.25l3.44,4.66,5.79-.2a.8.8,0,0,1,.68,1.26l-3.37,4.71,2,5.45a.79.79,0,0,1-1,1l-5.53-1.75-4.57,3.56A.79.79,0,0,1,1821.84,996Z"/><path class="cls-15" d="M1897.91,1082.12l-.07-8.93-7.39-5a1.22,1.22,0,0,1,.29-2.18l8.48-2.82,2.47-8.59a1.23,1.23,0,0,1,2.17-.38l5.3,7.18,8.93-.3a1.23,1.23,0,0,1,1,1.94l-5.2,7.26,3,8.4a1.23,1.23,0,0,1-1.53,1.59l-8.51-2.69-7,5.48A1.22,1.22,0,0,1,1897.91,1082.12Z"/><path class="cls-13" d="M1963.86,1293.18l-.09-11.74-9.72-6.57a1.62,1.62,0,0,1,.39-2.87l11.14-3.72,3.25-11.27a1.6,1.6,0,0,1,2.84-.51l7,9.44,11.73-.4a1.61,1.61,0,0,1,1.36,2.55l-6.82,9.55,4,11a1.62,1.62,0,0,1-2,2.09l-11.18-3.54-9.26,7.22A1.62,1.62,0,0,1,1963.86,1293.18Z"/><path class="cls-15" d="M2079.65,1155.4l-.06-7.6-6.31-4.27a1,1,0,0,1,.26-1.85l7.22-2.41,2.1-7.31a1,1,0,0,1,1.85-.33l4.52,6.12,7.6-.26a1,1,0,0,1,.89,1.65l-4.43,6.19,2.59,7.15a1,1,0,0,1-1.29,1.36l-7.26-2.3-6,4.68A1,1,0,0,1,2079.65,1155.4Z"/><path class="cls-15" d="M1749.33,840.76l-.06-7.6-6.3-4.27a1,1,0,0,1,.26-1.85l7.21-2.41,2.11-7.31a1,1,0,0,1,1.84-.33l4.52,6.12,7.61-.26a1,1,0,0,1,.88,1.65l-4.42,6.19,2.59,7.16a1,1,0,0,1-1.3,1.35l-7.25-2.29-6,4.67A1,1,0,0,1,1749.33,840.76Z"/><path class="cls-13" d="M2188.69,1048.32l-.08-9.21-7.63-5.17a1.26,1.26,0,0,1,.31-2.25l8.74-2.92,2.56-8.86a1.26,1.26,0,0,1,2.23-.4l5.48,7.41,9.21-.3a1.27,1.27,0,0,1,1.08,2l-5.36,7.5,3.14,8.67a1.27,1.27,0,0,1-1.57,1.64l-8.79-2.78-7.28,5.66A1.26,1.26,0,0,1,2188.69,1048.32Z"/><path class="cls-13" d="M1895.86,835.7l-.07-9.22-7.64-5.16a1.27,1.27,0,0,1,.31-2.26l8.75-2.91,2.55-8.86a1.26,1.26,0,0,1,2.23-.41l5.48,7.42,9.22-.31a1.27,1.27,0,0,1,1.07,2l-5.36,7.51,3.14,8.66a1.26,1.26,0,0,1-1.57,1.64l-8.79-2.78-7.27,5.67A1.27,1.27,0,0,1,1895.86,835.7Z"/><path class="cls-15" d="M1895.86,630.57l-.07-9.22-7.64-5.16a1.26,1.26,0,0,1,.31-2.25l8.75-2.92,2.55-8.86a1.26,1.26,0,0,1,2.23-.4l5.48,7.41,9.22-.31a1.27,1.27,0,0,1,1.07,2l-5.36,7.5,3.14,8.67a1.27,1.27,0,0,1-1.57,1.64l-8.79-2.78-7.27,5.66A1.27,1.27,0,0,1,1895.86,630.57Z"/><path class="cls-15" d="M2520.12,800.77l-.07-9.21-7.64-5.17a1.26,1.26,0,0,1,.31-2.25l8.75-2.92,2.55-8.86a1.26,1.26,0,0,1,2.23-.4l5.48,7.41,9.22-.3a1.26,1.26,0,0,1,1.07,2l-5.36,7.5,3.14,8.67a1.27,1.27,0,0,1-1.57,1.64l-8.79-2.78-7.27,5.66A1.27,1.27,0,0,1,2520.12,800.77Z"/><path class="cls-15" d="M2211.67,572.1l-.07-9.22-7.64-5.16a1.26,1.26,0,0,1,.31-2.25l8.74-2.92,2.56-8.86a1.26,1.26,0,0,1,2.23-.4l5.48,7.41,9.22-.31a1.27,1.27,0,0,1,1.07,2l-5.36,7.5,3.14,8.66a1.26,1.26,0,0,1-1.57,1.64l-8.79-2.77-7.27,5.66A1.27,1.27,0,0,1,2211.67,572.1Z"/><path class="cls-13" d="M1804.36,574.23l-.07-9.22-7.64-5.17a1.27,1.27,0,0,1,.31-2.25l8.75-2.92,2.55-8.86a1.27,1.27,0,0,1,2.24-.4l5.48,7.42,9.21-.31a1.26,1.26,0,0,1,1.07,2l-5.36,7.5,3.15,8.67a1.27,1.27,0,0,1-1.58,1.64l-8.79-2.78-7.27,5.67A1.27,1.27,0,0,1,1804.36,574.23Z"/><path class="cls-13" d="M2460,662.23l-.08-9.22-7.63-5.16a1.28,1.28,0,0,1,.3-2.26l8.75-2.91,2.55-8.86a1.27,1.27,0,0,1,2.24-.4l5.48,7.41,9.21-.31a1.26,1.26,0,0,1,1.07,2l-5.35,7.51,3.14,8.66a1.27,1.27,0,0,1-1.58,1.64l-8.79-2.78-7.27,5.67A1.26,1.26,0,0,1,2460,662.23Z"/><path class="cls-15" d="M2225.84,1131.85l4.8-1.91,1.15-5a.7.7,0,0,1,1.23-.3l3.3,4,5.14-.46a.7.7,0,0,1,.66,1.08l-2.75,4.36,2,4.75a.71.71,0,0,1-.83,1l-5-1.28-3.89,3.4a.71.71,0,0,1-1.17-.49l-.33-5.15-4.44-2.65A.71.71,0,0,1,2225.84,1131.85Z"/><path class="cls-15" d="M2119.88,406.31l4.8-1.91,1.15-5a.7.7,0,0,1,1.23-.3l3.3,4,5.14-.46a.7.7,0,0,1,.66,1.08l-2.75,4.37,2,4.74a.71.71,0,0,1-.83,1l-5-1.28-3.89,3.4a.71.71,0,0,1-1.17-.49l-.33-5.15-4.44-2.64A.71.71,0,0,1,2119.88,406.31Z"/><path class="cls-15" d="M1800.68,453.79l4.8-1.91,1.14-5a.71.71,0,0,1,1.24-.29l3.3,4,5.14-.47a.71.71,0,0,1,.66,1.09l-2.76,4.36,2,4.74a.71.71,0,0,1-.82,1l-5-1.27-3.88,3.39a.71.71,0,0,1-1.18-.48l-.33-5.15-4.43-2.65A.71.71,0,0,1,1800.68,453.79Z"/><path class="cls-15" d="M2277.07,1033.17l4.8-1.91,1.14-5a.71.71,0,0,1,1.24-.29l3.3,4,5.14-.47a.71.71,0,0,1,.66,1.09l-2.76,4.36,2,4.74a.71.71,0,0,1-.82,1l-5-1.27-3.88,3.39a.71.71,0,0,1-1.18-.48l-.33-5.16-4.43-2.64A.71.71,0,0,1,2277.07,1033.17Z"/><path class="cls-15" d="M2488.09,1136.6l7.84-3.12,1.87-8.22a1.16,1.16,0,0,1,2-.49l5.39,6.49,8.4-.76a1.16,1.16,0,0,1,1.08,1.77l-4.5,7.13,3.31,7.75a1.16,1.16,0,0,1-1.35,1.58l-8.17-2.08-6.35,5.55a1.16,1.16,0,0,1-1.92-.79l-.54-8.42-7.24-4.32A1.16,1.16,0,0,1,2488.09,1136.6Z"/><path class="cls-15" d="M2413.22,1078.4l4.46-.09,2.45-3.73a.61.61,0,0,1,1.09.13l1.47,4.21,4.3,1.18a.62.62,0,0,1,.21,1.08l-3.55,2.7.21,4.46a.61.61,0,0,1-1,.53l-3.67-2.55-4.17,1.58a.62.62,0,0,1-.81-.75l1.29-4.27-2.79-3.48A.62.62,0,0,1,2413.22,1078.4Z"/><path class="cls-15" d="M2478.13,1037.29l7.6-.16,4.17-6.35a1,1,0,0,1,1.86.23l2.5,7.17,7.33,2a1,1,0,0,1,.36,1.84l-6,4.59.35,7.59a1,1,0,0,1-1.64.91l-6.24-4.34-7.1,2.69a1,1,0,0,1-1.37-1.28l2.19-7.27-4.75-5.93A1,1,0,0,1,2478.13,1037.29Z"/><path class="cls-13" d="M2618.86,786.67l7.59-.16,4.18-6.35a1,1,0,0,1,1.85.23l2.51,7.18,7.32,2a1,1,0,0,1,.36,1.84l-6.05,4.6.36,7.59a1,1,0,0,1-1.64.9l-6.24-4.33-7.11,2.68a1,1,0,0,1-1.37-1.27l2.2-7.28-4.75-5.93A1,1,0,0,1,2618.86,786.67Z"/><path class="cls-13" d="M2470.79,989.76l3.61-.08,2-3a.5.5,0,0,1,.89.11l1.19,3.41,3.49,1a.5.5,0,0,1,.17.87l-2.88,2.19.16,3.62a.49.49,0,0,1-.77.43l-3-2.07-3.38,1.28a.49.49,0,0,1-.65-.61l1-3.46-2.26-2.82A.5.5,0,0,1,2470.79,989.76Z"/><path class="cls-15" d="M2530.73,1079l3.61-.07,2-3a.49.49,0,0,1,.88.11l1.19,3.42,3.49,1a.5.5,0,0,1,.17.88l-2.88,2.19.17,3.61a.5.5,0,0,1-.78.43l-3-2.06-3.38,1.28a.5.5,0,0,1-.65-.61l1-3.47-2.26-2.82A.5.5,0,0,1,2530.73,1079Z"/><path class="cls-15" d="M2557.67,1002.59l3.62-.08,2-3a.49.49,0,0,1,.88.11l1.19,3.41,3.49,1a.49.49,0,0,1,.17.87l-2.88,2.19.17,3.61a.5.5,0,0,1-.78.43l-3-2.06-3.38,1.28a.5.5,0,0,1-.66-.61l1-3.46-2.26-2.83A.49.49,0,0,1,2557.67,1002.59Z"/><path class="cls-15" d="M2587.64,955.35l3.62-.07,2-3a.5.5,0,0,1,.89.11l1.19,3.42,3.49,1a.51.51,0,0,1,.17.88l-2.88,2.19.17,3.61a.5.5,0,0,1-.78.43l-3-2.06-3.38,1.28a.5.5,0,0,1-.65-.61l1-3.47-2.26-2.82A.5.5,0,0,1,2587.64,955.35Z"/><path class="cls-15" d="M2587.64,832.51l3.62-.08,2-3a.5.5,0,0,1,.89.11l1.19,3.41,3.49,1a.5.5,0,0,1,.17.87L2596.1,837l.17,3.61a.5.5,0,0,1-.78.44l-3-2.07-3.38,1.28a.5.5,0,0,1-.65-.61l1-3.46-2.26-2.82A.5.5,0,0,1,2587.64,832.51Z"/><path class="cls-15" d="M2497.28,615.42l3.62-.08,2-3a.49.49,0,0,1,.88.11l1.19,3.41,3.49,1a.49.49,0,0,1,.17.87l-2.88,2.19.17,3.62a.5.5,0,0,1-.78.43l-3-2.07-3.39,1.28a.5.5,0,0,1-.65-.61l1.05-3.46-2.26-2.82A.5.5,0,0,1,2497.28,615.42Z"/><path class="cls-15" d="M2139.57,510.63l3.61-.07,2-3a.5.5,0,0,1,.89.11l1.19,3.42,3.48.95a.5.5,0,0,1,.17.88l-2.88,2.19.17,3.61a.5.5,0,0,1-.78.43l-3-2.06-3.38,1.28a.5.5,0,0,1-.65-.61l1-3.47-2.26-2.82A.5.5,0,0,1,2139.57,510.63Z"/><path class="cls-15" d="M1957.71,630.07l3.61-.08,2-3a.5.5,0,0,1,.89.11l1.19,3.41,3.49,1a.5.5,0,0,1,.17.87l-2.88,2.19.16,3.62a.49.49,0,0,1-.77.43l-3-2.07-3.38,1.28a.49.49,0,0,1-.65-.61l1-3.46-2.26-2.82A.5.5,0,0,1,1957.71,630.07Z"/><path class="cls-15" d="M2433.62,489.16l3.62-.08,2-3a.49.49,0,0,1,.88.11l1.19,3.42,3.49,1a.5.5,0,0,1,.17.88l-2.88,2.18.17,3.62a.5.5,0,0,1-.78.43l-3-2.06-3.38,1.27a.5.5,0,0,1-.66-.6l1.05-3.47-2.26-2.82A.5.5,0,0,1,2433.62,489.16Z"/><path class="cls-15" d="M2349.23,481.31l3.61-.08,2-3a.49.49,0,0,1,.88.11l1.19,3.41,3.49,1a.49.49,0,0,1,.17.87l-2.88,2.19.17,3.61a.5.5,0,0,1-.78.44l-3-2.07-3.38,1.28a.49.49,0,0,1-.65-.61l1-3.46-2.26-2.82A.5.5,0,0,1,2349.23,481.31Z"/><path class="cls-15" d="M2400.24,445.43l7.1-.15,3.9-5.94a1,1,0,0,1,1.74.21l2.34,6.71,6.85,1.88a1,1,0,0,1,.34,1.72l-5.66,4.3.33,7.09a1,1,0,0,1-1.53.85l-5.83-4.05-6.65,2.51a1,1,0,0,1-1.28-1.2l2.05-6.8L2399.5,447A1,1,0,0,1,2400.24,445.43Z"/><path class="cls-13" d="M2430.24,555.66l7,2.25,5.84-4.51a1,1,0,0,1,1.64.79l0,7.39,6.1,4.16a1,1,0,0,1-.25,1.8l-7,2.32-2.07,7.09a1,1,0,0,1-1.79.31l-4.37-6-7.38.22a1,1,0,0,1-.86-1.6l4.32-6L2429,557A1,1,0,0,1,2430.24,555.66Z"/><path class="cls-15" d="M2518.15,543l7,2.25,5.84-4.52a1,1,0,0,1,1.64.8l0,7.39,6.1,4.16a1,1,0,0,1-.25,1.8l-7,2.31-2.07,7.09a1,1,0,0,1-1.79.32l-4.37-6-7.38.22a1,1,0,0,1-.86-1.61l4.32-6-2.49-7A1,1,0,0,1,2518.15,543Z"/><path class="cls-13" d="M2296.74,510.12l7,2.26,5.84-4.52a1,1,0,0,1,1.64.8l0,7.38,6.1,4.16a1,1,0,0,1-.25,1.81l-7,2.31-2.07,7.09a1,1,0,0,1-1.79.31l-4.37-6-7.38.22a1,1,0,0,1-.86-1.61l4.32-6-2.49-7A1,1,0,0,1,2296.74,510.12Z"/><path class="cls-13" d="M2182.56,452.51l7,2.25,5.84-4.52a1,1,0,0,1,1.63.8l0,7.39,6.1,4.16a1,1,0,0,1-.26,1.8l-7,2.31-2.07,7.09a1,1,0,0,1-1.8.32l-4.36-6-7.39.22a1,1,0,0,1-.85-1.61l4.32-6-2.49-6.95A1,1,0,0,1,2182.56,452.51Z"/><path class="cls-15" d="M1920.65,479.74l7,2.25,5.84-4.52a1,1,0,0,1,1.64.8l0,7.39,6.1,4.16a1,1,0,0,1-.25,1.8l-7,2.31L1932,501a1,1,0,0,1-1.79.32l-4.37-6-7.38.22a1,1,0,0,1-.85-1.6l4.31-6-2.49-6.95A1,1,0,0,1,1920.65,479.74Z"/><path class="cls-15" d="M2607.73,904.44l5.58-.12,3.07-4.67a.77.77,0,0,1,1.37.17l1.84,5.28,5.39,1.47a.77.77,0,0,1,.26,1.36l-4.45,3.38.26,5.58a.77.77,0,0,1-1.2.67l-4.59-3.19-5.23,2a.77.77,0,0,1-1-.94l1.62-5.35-3.5-4.36A.77.77,0,0,1,2607.73,904.44Z"/><path class="cls-15" d="M2525.72,867.94l3-.07,1.62-2.47a.41.41,0,0,1,.73.09l1,2.79,2.85.78a.41.41,0,0,1,.14.72l-2.35,1.79.13,2.95a.4.4,0,0,1-.63.35l-2.43-1.68-2.77,1a.4.4,0,0,1-.53-.5l.85-2.83-1.84-2.3A.4.4,0,0,1,2525.72,867.94Z"/><path class="cls-15" d="M2611.75,729.38l2.95-.07,1.62-2.47a.41.41,0,0,1,.73.09l1,2.79,2.85.79a.4.4,0,0,1,.14.71l-2.35,1.79.14,3a.41.41,0,0,1-.64.35l-2.43-1.68-2.77,1a.4.4,0,0,1-.53-.49l.85-2.84-1.84-2.3A.41.41,0,0,1,2611.75,729.38Z"/><path class="cls-13" d="M2317.83,1163.93l4.79-1.9,1.15-5a.71.71,0,0,1,1.24-.29l3.29,4,5.14-.47a.72.72,0,0,1,.67,1.09l-2.76,4.36,2,4.75a.71.71,0,0,1-.83,1l-5-1.27-3.88,3.4a.72.72,0,0,1-1.18-.49l-.33-5.15-4.43-2.65A.71.71,0,0,1,2317.83,1163.93Z"/><path class="cls-15" d="M2375.28,1193.64l7.66,1.69,5.75-5.35a1.08,1.08,0,0,1,1.81.69l.75,7.81,6.86,3.81a1.07,1.07,0,0,1-.09,1.93l-7.2,3.13-1.5,7.71a1.08,1.08,0,0,1-1.86.51l-5.21-5.88-7.79,1a1.08,1.08,0,0,1-1.06-1.62l4-6.76-3.31-7.12A1.07,1.07,0,0,1,2375.28,1193.64Z"/><path class="cls-15" d="M1921.76,992.66l0-3.25-2.69-1.81a.45.45,0,0,1,.11-.79l3.08-1,.89-3.12a.45.45,0,0,1,.79-.14l1.93,2.61,3.24-.11a.45.45,0,0,1,.38.71l-1.89,2.63,1.11,3a.45.45,0,0,1-.56.58l-3.09-1-2.56,2A.44.44,0,0,1,1921.76,992.66Z"/><path class="cls-15" d="M1814.21,887.92l0-3.24-2.68-1.81a.45.45,0,0,1,.1-.8l3.08-1,.9-3.12a.44.44,0,0,1,.78-.14l1.93,2.61,3.24-.11a.44.44,0,0,1,.38.7l-1.89,2.64,1.11,3a.45.45,0,0,1-.55.58l-3.1-1-2.55,2A.45.45,0,0,1,1814.21,887.92Z"/><path class="cls-21" d="M2937.64,507c-28.44,1-56.88,2.83-85.32,2.83-22.11,0-44.23-2-66.3-3.68-6.28-.48-12.88-1.91-17.54-7.42,3-5.43,8.24-6.19,13-6.46,12.43-.71,25-2,37.32-.78,38.38,3.86,76.65,8.77,115,13.29,1.32.16,2.62.49,3.93.73Z"/><path class="cls-21" d="M2902.35,635.17c-11.28,7.12-22.3,14.69-33.89,21.27-22.83,13-45.91,25.5-69.05,37.91-4.28,2.29-9.26,3.37-14,4.65-1.93.52-4.13.08-8.16.08,3-3.62,4.54-6.67,7-8.37,7.65-5.23,15.23-10.86,23.59-14.71,30.49-14,61.29-27.43,92-41a16.5,16.5,0,0,1,2.11-.61C2902.08,634.61,2902.22,634.89,2902.35,635.17Z"/><path class="cls-21" d="M2910.57,379.5c-38.67-7.59-77.34-14.9-114.37-28.66a103.33,103.33,0,0,1-13.39-6.3c-2.1-1.15-3.74-3.16-5.58-4.78.14-.6.29-1.2.43-1.8,3.36-.26,6.94-1.38,10.05-.61,16.28,4,32.77,7.58,48.57,13.09,24.07,8.39,47.63,18.23,71.4,27.49A24.57,24.57,0,0,1,2910.57,379.5Z"/><path class="cls-12" d="M2902.75,341.85c-44.36-25.56-87.53-49.67-127-79.7a187.21,187.21,0,0,1-17.61-15.85c-2.2-2.17-3.42-5.34-5.09-8.05.4-.63.79-1.26,1.19-1.88,3.49.69,7.26.78,10.42,2.21A155.18,155.18,0,0,1,2784.61,249c41.56,26.69,79.15,58.52,116.67,90.44A18.76,18.76,0,0,1,2902.75,341.85Z"/><path class="cls-12" d="M2907.73,455.47a43.84,43.84,0,0,1-4.57.42c-44.72-.59-89.44-1-134.15-2.05-10-.24-20-2.74-29.85-4.69-3.69-.72-7.12-2.85-10.67-4.33l-.15-2.32c3-1.28,6-3.5,9.11-3.66,13.41-.69,27-2.16,40.25-.82,43.48,4.41,86.84,9.93,130.24,15C2907.87,453.85,2907.81,454.66,2907.73,455.47Z"/><path class="cls-12" d="M2844.92,566.6c-14.94,2.27-29.82,5-44.82,6.71-23.14,2.57-46.36,4.5-69.57,6.4-4.87.39-9.87-.33-14.76-1-2.76-.36-5.41-1.59-8.11-2.43-.11-.75-.22-1.5-.32-2.24,3.8-1.57,7.48-4.08,11.41-4.55,15.27-1.85,30.59-3.89,45.93-4.31,25.68-.69,51.38-.19,77.07-.17a24.22,24.22,0,0,1,3.15.4C2844.9,565.83,2844.91,566.21,2844.92,566.6Z"/><path class="cls-13" d="M2762.39,328.91a9.31,9.31,0,1,1-9.31-9.31A9.31,9.31,0,0,1,2762.39,328.91Z"/><path class="cls-13" d="M234.89,170.25A14.21,14.21,0,1,1,220.68,156,14.21,14.21,0,0,1,234.89,170.25Z"/><path class="cls-15" d="M746,97.87a14.21,14.21,0,1,1-14.21-14.21A14.21,14.21,0,0,1,746,97.87Z"/><circle class="cls-15" cx="776.57" cy="419.99" r="14.21"/><path class="cls-15" d="M90.48,567.54a14.21,14.21,0,1,1-14.21-14.21A14.22,14.22,0,0,1,90.48,567.54Z"/><path class="cls-15" d="M185.81,828.45a14.22,14.22,0,1,1-14.21-14.21A14.22,14.22,0,0,1,185.81,828.45Z"/><circle class="cls-15" cx="495.18" cy="845.49" r="14.21"/><path class="cls-13" d="M595.5,505.25A14.21,14.21,0,1,1,581.29,491,14.21,14.21,0,0,1,595.5,505.25Z"/><circle class="cls-15" cx="416.02" cy="94.5" r="14.21"/><circle class="cls-15" cx="557.18" cy="251.74" r="14.21"/><path class="cls-13" d="M30.77,282.48a6,6,0,1,1,6,6A6,6,0,0,1,30.77,282.48Z"/><path class="cls-13" d="M242.67,350.92a6,6,0,1,1,6,6A6,6,0,0,1,242.67,350.92Z"/><path class="cls-15" d="M429.8,377a6,6,0,1,1,6,6A6,6,0,0,1,429.8,377Z"/><path class="cls-13" d="M483.29,135.43a6,6,0,1,1,6,6A6,6,0,0,1,483.29,135.43Z"/><path class="cls-13" d="M686.84,405.77a6,6,0,1,1,6,6A6,6,0,0,1,686.84,405.77Z"/><path class="cls-15" d="M670.17,316.69a6,6,0,1,1,6,6A6,6,0,0,1,670.17,316.69Z"/><path class="cls-15" d="M864.52,243.53a6,6,0,1,1,6,6A6,6,0,0,1,864.52,243.53Z"/><path class="cls-13" d="M818.48,609.78a6,6,0,1,1,6,6A6,6,0,0,1,818.48,609.78Z"/><path class="cls-13" d="M698.84,705.24a6,6,0,1,1,6,6A6,6,0,0,1,698.84,705.24Z"/><path class="cls-15" d="M631.63,778.67a6,6,0,1,1,6,6A6,6,0,0,1,631.63,778.67Z"/><path class="cls-13" d="M322.64,796a6,6,0,1,1,6,6A6,6,0,0,1,322.64,796Z"/><path class="cls-15" d="M46.54,697.68a6,6,0,1,1,6,6A6,6,0,0,1,46.54,697.68Z"/><path class="cls-22" d="M2844,1454s-14.89,22.47-18.44,41.07,2.6,75.75-4.22,100.13c-3.69,13.19-17.69,33.56-19.82,50.61S2792,1712,2792,1712h0c-1.12,5.16-2.88,11.55-5.16,14.52-1.39,1.82-3.94,4.12-5.61,7.41-2.6,5.11-1.16,12.73.76,16.92,1,2.15-.07,2.15,2.17,2.84a13.78,13.78,0,0,0,16.54-7.78,39.7,39.7,0,0,0,3.25-14.31,67,67,0,0,1,2.34-15.12h0l47.62-116.81,34.47-100.8,8.83-51.92Z"/><path class="cls-23" d="M2802,1742.58c-10.31,1.89-17.16-4.16-20.73-8.68-2.62,5.12-3.9,12.77-2,17,1.7,3.71,6.66,3.6,10.56,3.75,4.13.15,7.32-2.15,9.37-5.75A33.74,33.74,0,0,0,2802,1742.58Z"/><path class="cls-19" d="M2782.54,1524.46l1.6-3.93,2.75,2,1.88,5.42-1.33,1.08S2783.73,1525.42,2782.54,1524.46Z"/><path class="cls-24" d="M2808.41,1549.12l-.58-15.43c-.43-11.49-6.89-21.41-14.41-22.11s-16,8.7-18.85,21l-3.86,16.49c-.38,1.62-2.48,1.62-2.07,0l4.1-16.54c3.39-13.67,12.78-24.11,20.92-23.28s15.32,11.84,16,24.54l.82,15.37A1,1,0,1,1,2808.41,1549.12Z"/><polygon class="cls-13" points="2824.64 1637.24 2718.71 1637.24 2738.7 1536.32 2817.33 1536.02 2824.64 1637.24"/><polygon class="cls-25" points="2769.46 1627.4 2718.71 1637.24 2824.64 1637.24 2769.46 1627.4"/><path class="cls-24" d="M2800.26,1546.93l-.57-15.43c-.43-11.49-6.9-21.4-14.42-22.11s-16,8.7-18.84,21l-3.86,16.49c-.38,1.62-2.48,1.62-2.08,0l4.11-16.55c3.39-13.67,12.77-24.11,20.92-23.28s15.32,11.84,16,24.54l.82,15.37A1,1,0,1,1,2800.26,1546.93Z"/><path class="cls-10" d="M2796,1498.44c-.08-.32,12.83-55.12,18-67.23s25.5-68.39,25.5-68.39l-20.58-8.33s-19.75,45.53-27.46,65.44-7.28,57.72-7.62,68.08c0,.15-1.14,8.76-1.14,8.9h0a17.15,17.15,0,0,1-.62,2.29,33.19,33.19,0,0,0-1.26,4.28,12.53,12.53,0,0,1-1.12,2c-.31.51-1,7.55-1.18,8.68a17.19,17.19,0,0,0,.35,3.71l-.28,4.72c-.2,3.46,3.39,2.55,3.39,2.55-.08,1.63.49,2.49,1.41,2.79a7.5,7.5,0,0,0,2.18.12c.17.07.24.58.24.58-.09,1,1.08,1.84,1.84,2a3.48,3.48,0,0,0,2.48-.81c.39-.45.65-.38.65-.38.77.65,3.7.62,4.38-.32s1.29-5.93,1.6-6.37a5.33,5.33,0,0,0,1-1.93c.1-.72,2.5-5.82,2.64-6.84s-1.35-4.45-1.68-6.51-2.33-5.25-2.82-6.17a7.67,7.67,0,0,1,0-2.83Z"/><path class="cls-7" d="M828.84,1387.14l2.14,1.93a2.63,2.63,0,0,0,3.7-.1l38-41.89a2.6,2.6,0,0,0-.28-3.67l-2.14-1.92a2.63,2.63,0,0,0-3.7.09l-38,41.89A2.59,2.59,0,0,0,828.84,1387.14Z"/><path class="cls-10" d="M700.09,1353.11c5.08-4.14,44.33,13.14,43.83,19.16s27.39,64.34,27.39,64.34l48.2-38.56,0,0c.43-1.4,5-16.4,5.22-19.08s8.37-7.74,12.16-7-3.24,5.48-3.7,6.36c-1.25,2.38,3.6,3.27,3.6,3.27s13.92-7.67,14.22-12.18,3.17-14,6.18-12c1.55,1,1.53,7.72,1,10.9.89-3.61,2.16-7.69,3.39-8.09,2.26-.74,3.38,2.14,3,3.55s-4,16.75-5.15,18.47-23.57,19.87-26.81,23.82c0,0-62.34,71.5-66.78,73.37-3.9,1.64-17.78-23-30.9-39.36S684.23,1366.05,700.09,1353.11Z"/><path class="cls-9" d="M574.3,1878.91s-8.56,8.39-8.76,11.47-.76,36,2.74,39.13,13.77,5.26,10.47,8.72c-2.5,2.62-21.7,2.06-34.43,1.36-3.71-.21-8.37-29.95-9.84-34.32-2.14-6.35-7.34-20.65-5.39-25.08.94-2.15,5.47-6.58,11.85-10.72,6.71-4.35,13.14-14,13.14-14Z"/><path class="cls-10" d="M663,1898.44s-7.66,21.73-7.67,21.79c-.57,3.44-2.82,12-2.82,15.08,0,11.75,52.85-10,41-15.19-1.07-.48-4.43-4.24-4.78-8.24-.55-6.17,4.45-13.9,4.45-13.9Z"/><path class="cls-25" d="M745.94,1493.8s3.85,39,3.85,39.54c0,63,12.45,186.1,10.09,198-5.78,28.9-67.94,176.31-67.94,176.31l-33.6-4,43.78-176.49L686,1656l-22.8-140.43Z"/><path class="cls-13" d="M633.18,1528.26l-6.37,36.92-17.25,152-65.69,148.52s9.24,21.6,22.88,24.64l104.54-152.48,64.94-195.1L734,1499.36Z"/><path class="cls-26" d="M759.34,1401.05l-46.59,4.77s-2.13-38.32-2.13-56.6c0-22.18,1.88-50.75,4.55-50.13,7.49,1.72,17.58,5.87,23.58,14.15C759.54,1341.9,759.34,1401.05,759.34,1401.05Z"/><path class="cls-15" d="M736.45,1345.31c1,6.76,18.89,190.59,18.89,190.59-84.83,41.11-131.64,7.32-131.64,7.32s2.78-129.09-.55-146.66c-2.2-11.62-4.94-88.87,2.57-91,9.63-2.78,20.68-5.73,32.72-7,10.27-1.07,50.2-1.69,57.34.72C715.78,1299.27,732.35,1316.87,736.45,1345.31Z"/><path class="cls-15" d="M541.36,1869.26s19.74,55.78,27.47,58.47c2,.72,11.9,2.53,13.76,6.9.56,1.32,0,5.72,0,5.72H541.43s-5.2-24.58-7.26-35.38c0,0-10.89-26.38-9.68-28.78S541.36,1869.26,541.36,1869.26Z"/><path class="cls-15" d="M649.55,1939.19,655.6,1920s12.71,5.4,19.06,4.5,18.76-4.5,18.76-4.5c25.37,8.38,46.15,12.45,42.37,19.19H649.55Z"/><path class="cls-10" d="M765.88,1479.47a11,11,0,0,0,1.28-1c-1.51-18-1.24-35.46,4.4-41.36-.14-.28-1.37-2.91-2.66-5.63-6.53,5.06-9.63,18.52-8.41,40.37a36,36,0,0,0,.86,4.53C763.24,1478.51,765,1479.86,765.88,1479.47Z"/><path class="cls-8" d="M539.69,1537.85a5.26,5.26,0,0,1,0-1.19c1.25-12.73,11.78-119.63,13.56-124.17,1.6-4.11,48.85-71.91,48.85-71.91l23.22,31.74-45.44,60.82c-1,3.86-17.41,76-17.41,76s-3.36,13.15-4.87,21c.69,1.9,1.36,3.69,2,5.16a47.15,47.15,0,0,0,4.9,7.9c2,2.73,5.38,8.7,5.8,10.3.48,1.85,1.35,5.71,1.84,8s1.16,5,1.27,6.3a12.18,12.18,0,0,0,1.47,3.39,2,2,0,0,1-2.39,2.94c-1.65-.56-2.94-2.7-3.73-4-2.23-3.78-3.43-10.66-4-10.3s-2.52,12-2.83,13.37-2.66,14.89-4,17.37-3.09,2.06-3.55.51c-.4-1.34,1.46-20.32,1.46-20.32s.24-2.42-.82-1.66-2.79,18-3.52,20.5-2.41,3.86-3.83,1.83c-1.73-2.46,1.24-20.74,1.24-20.74s.34-2.29-.64-2.08-2.21,14.9-3,16.17-2.68,1.72-3.6-.39c-1.07-2.5,1.72-18.79,1.72-18.79s-.14-1.3-.75-.86-2.54,12.87-3.81,14a1.33,1.33,0,0,1-1.94,0c-2.31-1.59,1.24-13.42,1.2-19.31s2.69-12.5,1.87-19.5C539.92,1539.61,539.78,1538.53,539.69,1537.85Z"/><path class="cls-15" d="M565.16,1383.52l40.36,27.19s22.75-34,35-46c15.3-15.15-5.57-61.55-15.43-58.93C603,1311.6,565.16,1383.52,565.16,1383.52Z"/><path class="cls-10" d="M661.4,1258.81l-6,39.92s22,47.53,35.2,43.41c11-3.46,4.25-45.52,4.25-45.52s-6-22.59-4.21-33.89S661.4,1258.81,661.4,1258.81Z"/><path class="cls-15" d="M690.61,1262.73c1.8-11.3-29.21-3.92-29.21-3.92l-.5,3.31a18.4,18.4,0,0,0,3.37,5.56A40.74,40.74,0,0,0,691.38,1280C690.44,1273.9,689.87,1267.37,690.61,1262.73Z"/><path class="cls-10" d="M656.32,1202.33c-.88-.32-7,45.47,4.64,58.06s34.4,16.73,42.56,6.8c9-11,8.56-60.18-9.58-73.14S656.32,1202.33,656.32,1202.33Z"/><path class="cls-27" d="M687,1169.55a50.41,50.41,0,0,0-26.44,15.13c-6.36.76-15,4.29-24,19.14-11,18.25-2.88,38.47,9.91,48.4s12.62,21.38,12.62,21.38l2-5.93a33.25,33.25,0,0,0,1.6-14,27.32,27.32,0,0,0-2.07-8.4c-3.08-6.62,6.61-11,9.32-16.54,2.1-4.25,2.2-14,5.49-21l3.94-5.36s9.07-7.09,17.95-5.09S705,1165.87,687,1169.55Z"/><path class="cls-10" d="M669.45,1236.92c.09,5.58-2.44,10.16-5.65,10.21s-5.9-4.43-6-10,2.44-10.16,5.65-10.22S669.36,1231.33,669.45,1236.92Z"/><path class="cls-18" d="M688.4,1249.83l17.58-.92s-.06,6.73-7.78,7.35C688.79,1257,688.4,1249.83,688.4,1249.83Z"/><path class="cls-8" d="M1762.45,1375a14.8,14.8,0,0,1-1.55,3.76c-4.46,8.13-14.83,19.72-14.83,19.72l-8-18s1.31-5.67,3.57-13.78C1749.37,1368.69,1756.75,1369.86,1762.45,1375Z"/><path class="cls-28" d="M1716.5,1359.36s44.7,19.25,46.15,18.88c.93-.24,18.33-29.37,18.52-56.77.09-12.65-13.06-27.87-27.72-24.86-7.38,1.51-7.26,3.56-18.18,19.43S1716.5,1359.36,1716.5,1359.36Z"/><path class="cls-10" d="M1678.34,1704.49s1.06,17.56,1.07,17.59c.39,2.23,1.92,7.74,1.92,9.77,0,7.61-36.14-6.47-28-9.84.73-.31,4.57-2.61,4.81-5.21.37-4,1.32-12.06,1.32-12.06Z"/><path class="cls-29" d="M1653.38,1721.94s8.48,2.33,12.83,2.91,10.08-4.32,13.15-3c3.38,1.46,3.25,14.58,3.25,14.58s-45.51,3.73-58.31-.13C1619.23,1734.77,1636,1727.36,1653.38,1721.94Z"/><path class="cls-10" d="M1752.29,1704.49s1.06,17.56,1.06,17.59c.39,2.23,1.93,7.74,1.93,9.77,0,7.61-36.15-6.47-28-9.84.73-.31,5.71-4.34,6-6.93.37-4,.17-10.34.17-10.34Z"/><path class="cls-29" d="M1727.32,1721.94s8.49,2.33,12.83,2.91,10.08-4.32,13.16-3c3.38,1.46,3.51,14.58,3.51,14.58s-45.71,4.35-58.57-.13C1693.26,1734.56,1710,1727.36,1727.32,1721.94Z"/><path class="cls-10" d="M1741.24,1384.75l-31.84-44.6c-.13-.39-.42-1.19-.86-2.41-1.61-4.43-4.94-13.64-7.85-22.8l0-.1c-.91-3.2-2.85-8.78-4.72-14.19-2.08-6-4.67-13.46-4.76-14.73l.43-1.12a102.64,102.64,0,0,0,3.31-13.39c.35-2,.71-6.85-1.67-6.85-3.73,0-2,4.85-3.67,7.88a74.63,74.63,0,0,1-2.59-10.11l-.63-9.48c-.12-.72.64-5.95-2-5.95h-.13c-2.35.17-2.3,5.73-3.28,15.14-.31-1.08-.62-2.39-.85-3.59a33.14,33.14,0,0,0-.8-5c.48-2.62.2-6.76-2.59-6.37-1.4.2-1.28,6-1.28,6,0,.79.09,6.89,0,8.09-.29-2-1.4-10.77-3.59-10.77-1.82,0-2,2.35-1.93,4.21,0,1.1,1.16,10.55,1.23,11.65-.86-1.43-1.87-9.77-2.72-9.77-3.54,0-2.26,11.85-1,14.94a14.88,14.88,0,0,1,.4,1.65,29.44,29.44,0,0,0,3,8.82c2.22,3.8,5.29,9.85,5.76,10.78.34,1.89,1.41,8.68,2.75,17.23.57,3.65,1.2,7.66,1.85,11.81h0c.12.9.78,3.76,3.3,14.48,3.45,14.67,3.8,15.3,4,15.57,1.49,2.65,35.82,49.27,37.28,51.25l.86,1.17Z"/><path class="cls-15" d="M1682,1280.73s2.59-6.61,7.19-6.62a5.29,5.29,0,0,0-4.78.82C1682.23,1276.67,1682,1280.73,1682,1280.73Z"/><path class="cls-10" d="M1748.93,1268l4.1,25.92s-15.62,12.54-24.72,9.89c-7.64-2.21-2.4-12.2-2.4-12.2s4.07-13.84,2.82-21.09S1748.93,1268,1748.93,1268Z"/><path class="cls-30" d="M1746,1275.8a63.72,63.72,0,0,1-17.68,5,34.23,34.23,0,0,0,.42-10.3c-.58-3.35,3.68-4.14,8.44-4,6.22.53,11.76,1.5,11.76,1.5l.79,5A12.93,12.93,0,0,1,1746,1275.8Z"/><path class="cls-10" d="M1768.64,1238.07c.64,0-6.18,29-16.73,33.93s-26.28,2.39-29.23-5.41c-3.27-8.63,8.64-38.17,23.48-41.92S1768.64,1238.07,1768.64,1238.07Z"/><path class="cls-27" d="M1756.43,1211.46a33.18,33.18,0,0,1,13.59,15c4,1.88,8.75,5.94,11,16.88,2.83,13.45-7.21,23.82-17.86,26.94s-12.29,10.16-12.29,10.16l-1.21-7.58s2.37-6.6,5.93-9.91-1.69-8.12-2.15-12c-.35-3,1.87-8.89,1.39-13.85,0,0-5.92-9-11.75-11.19C1733.18,1222.11,1745.62,1205.23,1756.43,1211.46Z"/><path class="cls-10" d="M1751.94,1256c-1.37,3.34-.81,6.66,1.26,7.41s4.88-1.35,6.26-4.69.81-6.67-1.26-7.42S1753.32,1252.62,1751.94,1256Z"/><path class="cls-8" d="M1712.65,1385.46l-61.41-10s7-17.59,9.48-17.59,46.43,19.18,46.43,19.18l3.5,7Z"/><path class="cls-31" d="M1744.1,1427.57s6.13,29.61,3.63,52.07-2.69,102.22-2.69,102.22l9.52,127.64-22.6.49s-26.8-127.57-26.31-124.3-9-89.82-9-89.82l31.95-71.11Z"/><path class="cls-23" d="M1738.11,1426.16s4,26.67-1,38.37-42.82,126.45-43.32,135.81-13.08,112.77-13.08,112.77l-26.29-.74-5.68-115,11.9-144.51,11.56-36.54Z"/><path class="cls-10" d="M1753,1293.88s-6.48,4.25-12.53,3.76-14.59-6.07-14.59-6.07l1.19-4s15.64-2.27,16-2S1753,1293.88,1753,1293.88Z"/><path class="cls-8" d="M1684,1357s-23.23,21.92-33.72,18.18-14.82-16.53,10.76-35.25C1683.89,1323.17,1684,1357,1684,1357Z"/><path class="cls-13" d="M1668.21,1384.06c3.45-18.77,28.46-77.19,30.46-88,1-5.24,14.46-5.35,27.31-4.67,13.57.72,27,2.44,27,2.44s12,2,17.3,6.93,6.69,18.65-.91,44.65c-6,20.53-13.43,31.8-17.11,46.75-.75,5-1.39,10-2.23,15.75-1.36,22.35,0,51.89,0,51.89s-65.4,13.56-89.87-7C1660.22,1452.83,1664.67,1403.29,1668.21,1384.06Z"/><path class="cls-28" d="M1651.53,1343.69s25.67,21.19,27.16,21.19c1,0,36.63-26.23,44.86-47.78,4.55-11.92-5-25.25-15.9-25.2-7.55,0-10.91,2-25.89,14.61S1651.53,1343.69,1651.53,1343.69Z"/><path class="cls-10" d="M1540.43,1346.61l-8.78-7.74a7.83,7.83,0,0,0,1.12-2c0-.95-.65-9.91-.22-13.15.14-1,1.11-3.85,2-3.65a1.48,1.48,0,0,1,1.3,1.59c-.08.73-.11,1.59-.19,2.32s0,2.93.77,3.37,5.65-9.5,5.65-9.5,1.27-2.92,1.62-3.92,1-3.49,1-3.49,1.46-4.23,2.6-3.8c1.4.53-2.8,14.8-2.14,15.13s3.63-5,3.63-5a19.53,19.53,0,0,1,1.45-4c.16-1.82,1.67-4.86,3-4.24.25.11-.53,4.61-.53,4.61s-.79,2.69-1.08,4c-.52,2.3-2.26,5.3-2.73,6.82-.4,1.27.13,1,.22,1.13a30.85,30.85,0,0,0,1.95-3.66,23.68,23.68,0,0,0,1.86-3.56,28,28,0,0,1,1.75-3.91c1.47-2.79,3-1.37,2,1.46-.35,1.07-.75,2.24-1.16,3.42-1.59,4.59-4,8.41-3.61,8.73s4.55-6.8,4.55-6.8,3.29-3.27,1.9.89a26.39,26.39,0,0,1-4.42,8.12c-.73,1-2.33,4.89-5.39,7.8A100.2,100.2,0,0,0,1540.43,1346.61Z"/><path class="cls-10" d="M1423.16,1498s-1.4-2.75-1.79-3.7c-.45-1.11-1.56-4.54-1.56-4.54s-3.26-12.13-2.32-12.3,2.71,1.61,3.18,2.29,1.1,1.43,1.57,2.11a1.7,1.7,0,0,0,2.31.38c.91-.52-.36-3.62-1-4.61-2.06-3.08-9.3-10.22-10-11s-2.52-23-3.71-30.52h0c-1.56-12.36-2.54-25.14-2.69-26.46l9.35-52.64-18.57-10.72s-11.23,58.28-11.45,61.26c-.1,1.41,5.83,29.78,5.84,29.77,3.82,13.79,7.23,25.93,7.82,28.28,0,0-.2,7.49-.62,12.26s1.17,9.3,1.27,10.66a29.94,29.94,0,0,0,2.32,10.2c1.94,4.58,2.29-.67,2.29-.67s-2-9.14-1.23-9.18c.59,0,1.38,5,3.47,10.12.54,1.31,1.07,2.6,1.57,3.78,1.32,3.1,3.67,3.16,2.83-.3a31.08,31.08,0,0,0-1.43-4.63,27.32,27.32,0,0,1-1.09-4.42,36.08,36.08,0,0,1-1.09-4.56c.17,0,.42-.59,1,.78.74,1.65,1.5,5.5,2.78,7.84.73,1.33,2.08,4.19,2.08,4.19s2.7,4.41,3,4.32c1.61-.49.61-4.19-.62-5.86a21.45,21.45,0,0,0-1.72-4.44s-1.63-6.7-.65-7c.8-.21,7.93,15,9.51,14.45C1425.08,1502.71,1423.16,1498,1423.16,1498Z"/><path class="cls-15" d="M1418,1387.06s-9.57.06-14.82-.86c-7-1.22-11.71-2.54-11.71-2.54s1.66-31.11,7.28-50.8c2.33-8.14,5.41-12.41,10.49-14.19,0,0,12.36,5.1,15.06,22.1C1425,1344.76,1418,1387.06,1418,1387.06Z"/><path class="cls-10" d="M1443.74,1486.25,1456,1595.09s-6,23-5.25,29.56S1464,1717,1464,1717l-.53,4.81V1736h46.62a209.35,209.35,0,0,1-23.74-13.15,9.48,9.48,0,0,1-3.95-6.81c-3.7-26.44,3.61-114.62,3.61-114.62l5.77-114.8Z"/><path class="cls-10" d="M1406.27,1509.14c-2.63.67-6.69,94.25-8.87,98.4-13.82,26.29-17.11,106.24-17.11,106.24l-4.12,11.64-4.19,13.82s13.8,3.55,21-.44l-.8-13.76-.74-12.59,34.88-99.6,19.09-101.59Z"/><path class="cls-13" d="M1475.64,1327.86c-5.62-7.66-28.84-29.87-31.42-29.82-7.52.13-32.19.14-37,2.58l.23,42.27c.79,3.55,17.83,58.81,16.84,70.91l.12.11a34.22,34.22,0,0,0,49.85-2.39h0a278.2,278.2,0,0,1,2-32.06C1479.35,1355.51,1489.62,1346.9,1475.64,1327.86Z"/><path class="cls-15" d="M1496.11,1557.05l1.66-64.57a124.27,124.27,0,0,0-10.93-53l-12.6-28a78,78,0,0,1-15.26,3.59c-11.66,1.31-23.12,0-34.71-1.31a9.48,9.48,0,0,1-.16,1.14c-2.11,9.51-13.82,30.71-18.76,59.68-5.6,32.9-7.06,78.5-6.36,82.36C1431.43,1564.55,1464.69,1564.8,1496.11,1557.05Z"/><path class="cls-10" d="M1436.66,1274.24s.65,15.6-.76,21.51-3.28,6.36,8.79,8.16c4.74.7,9.31,1.76,9.31,1.76s-1.24-8.68-1.43-12.35c-.31-6,1.4-24.67,1.4-24.67Z"/><path class="cls-15" d="M1445.84,1282a21.78,21.78,0,0,0,6.94,2.46c.41-7.37,1.19-15.81,1.19-15.81l-16.52,5.34A21.63,21.63,0,0,0,1445.84,1282Z"/><path class="cls-15" d="M1392.21,1725c-6.37,2.83-13.22,1.13-16,.22l-.91,2.46-3.52,11.67s14,3.45,21.22-.53Z"/><path class="cls-15" d="M1463,1739.51h48.47c1.79-.16,2.23-1.62,1.61-2.52-1.28-1.85-6.94-3.21-13.29-6.16-11.15,1.17-34.55-6.5-36.31-9.08C1462.44,1726.91,1462,1739.29,1463,1739.51Z"/><path class="cls-7" d="M1443.31,1471.06v20.32c0,10.56,8.85,19.12,19.76,19.12h20.33v-47.36h-31.91a8.25,8.25,0,0,0-5.63,2.18A7.74,7.74,0,0,0,1443.31,1471.06Z"/><path class="cls-7" d="M1443.4,1471.81l6-.12-3.4-158.92a17.05,17.05,0,0,1,13.42,11.81l42,143.51,5.81-1.6-42-143.51a23.21,23.21,0,0,0-22.32-16.33h-3.08Z"/><path class="cls-8" d="M1444.6,1342.71l25.57-4.47,15.88,35.43c10.07-9.7,46.53-36.62,46.72-36.82l8.09,9.18s-42.9,55.51-62.45,52.94C1461.73,1396.78,1444.29,1342.55,1444.6,1342.71Z"/><path class="cls-15" d="M1434,1318.7c-3.49,14.33,15.13,46.26,15.13,46.26s26.52-12.47,31.19-17.84c0,0-18-31-19.2-32.88-5.35-8.53-12.61-8.54-17.34-8C1440,1306.7,1434,1318.7,1434,1318.7Z"/><path class="cls-27" d="M1433.55,1323.09c12.27-10.68,16.9-34.22,8.9-48.24,5.56-7.21,9.12-5.93,7.88-14.9-2.44-17.7,22.28-28.36,3.81-33.07-18.66-3.72-34.18,7.7-42.71,19a45.18,45.18,0,0,1-14.32,12.65c-11.27,6.16-17.21,20.93-11.23,36.34-9,5-16.9,19.64-10.93,31.75,1.43,2.91,4.33,6.31,4.42,7.15-.17-1-8.41,26,22.35,35.19C1433.1,1378.39,1439.57,1348.36,1433.55,1323.09Z"/><path class="cls-10" d="M1451.67,1259.29c0,3.89-1.46,7-3.26,7s-3.26-3.16-3.26-7,1.46-7,3.26-7S1451.67,1255.4,1451.67,1259.29Z"/><path class="cls-20" d="M1445.86,1465.32h.14a7.47,7.47,0,0,1,7.59,7.35v14.94c0,12.65,10.58,22.89,23.64,22.89h12.38c13.06,0,23.64-10.24,23.64-22.89v-14.87a9.76,9.76,0,0,0-9.92-9.6h-51.84A8.25,8.25,0,0,0,1445.86,1465.32Z"/><path class="cls-27" d="M1424.57,1245.48c-3.63,14.93,16,25.77,31.61,26.17,10.12.26,14.77-.78,16.4-11.41,2.66-17.23-4.47-27.74-14.45-32.09C1445.24,1222.54,1427.57,1233.16,1424.57,1245.48Z"/><path class="cls-10" d="M1447.44,1235.43a20.46,20.46,0,0,0-10.49,9.19c-3.65,6.89-1.84,28.94,13.34,36.22s22.16-9.25,21.06-21.44S1465.85,1231.26,1447.44,1235.43Z"/><path class="cls-27" d="M1431.55,1261.31c-2.25-11.4-1.37-20,6.76-24.21s15.07-8.31,22.35-.81l1.64.92s-13.72,3.78-14.49,11-8.06,15.89-6.94,19.46,2.42,10.68,2.42,10.68l-3-2.46S1433.8,1272.71,1431.55,1261.31Z"/><path class="cls-10" d="M1445.7,1257c1.13,3.14.27,6.31-1.92,7.06s-4.88-1.2-6-4.35-.27-6.3,1.92-7.05S1444.56,1253.8,1445.7,1257Z"/><path class="cls-18" d="M1454.8,1269.83l11.45.45s-.44,4.34-5.48,4.28C1454.63,1274.5,1454.8,1269.83,1454.8,1269.83Z"/><path class="cls-10" d="M1816.41,1722.14s.77,9,.77,9c.28,1.14,1.39,4,1.39,5,0,3.9-26-3.32-20.21-5,.52-.15,3.29-1.34,3.47-2.67.26-2,.94-6.19.94-6.19Z"/><path class="cls-29" d="M1798.42,1731.21a84.63,84.63,0,0,0,9.25,2.52c3.13.51,7.26-3.75,9.48-2.6,2.44,1.27,2.34,12.65,2.34,12.65s-32.8,3.24-42-.11C1773.81,1742.34,1785.92,1735.91,1798.42,1731.21Z"/><path class="cls-10" d="M1869.7,1722.14s.77,9,.77,9c.28,1.14,1.39,4,1.39,5,0,3.9-26-3.32-20.21-5,.53-.15,4.12-2.22,4.29-3.55a39.24,39.24,0,0,0,.13-5.31Z"/><path class="cls-29" d="M1851.71,1731.21a84.63,84.63,0,0,0,9.25,2.52c3.13.51,7.26-3.75,9.48-2.6,2.44,1.27,2.54,12.65,2.54,12.65s-33,3.78-42.22-.11C1827.16,1742.16,1839.21,1735.91,1851.71,1731.21Z"/><path class="cls-28" d="M1863.81,1580s4.41,15.2,2.61,26.72-1.94,52.46-1.94,52.46l6.87,65.49-16.29.25s-19.32-65.46-19-63.78-6.48-46.09-6.48-46.09l23-36.49Z"/><path class="cls-13" d="M1859.49,1579.32s2.88,13.68-.72,19.68-30.87,64.89-31.23,69.69-9.42,57.88-9.42,57.88l-18.95-.38-4.09-59,8.58-74.15,8.33-18.75Z"/><path class="cls-10" d="M1870.46,1474.12c2.68-6,6.06-24.72,7.19-31.07-.26-.49-1.65-3.43-.89-8.77.53-3.77-1.44-10.33.94-9.65s1.8,7.28,3.38,6.31,3.73-14.68,5.89-14.06-.73,13.43.69,12.56,2.75-12.83,5.81-12-2.89,13.92-1.25,14.39,5.17-7.84,7.63-7.14-5.37,11.13-4.53,10.62,6.65-4.49,7.43-3.37-12.88,12.94-13.28,16.36h0c.09,8.79.45,24.73-3.41,34.31-4.73,11.72-16.39,37.63-16.39,37.63l-18.23-6.45S1867.28,1481.26,1870.46,1474.12Z"/><path class="cls-10" d="M1753.74,1515.3s.8-3-1.2-7.87c-1.28-3.16-1.11-9.29-2.93-8.16s.13,6.71-1.4,6.22-6.36-11.89-8-10.87,3.6,11.48,2.24,11-5.14-10.51-7.48-9.06,5.5,11.42,4.25,12.19-6-5.64-7.91-4.48,6.92,8.45,6.12,8.19-6.51-2.4-6.91-1.27c-.44,1.29,11.4,6.48,12.5,9.35s19.26,32.33,25.28,33,35-14.73,37.65-20.47.83-12.32-3-13.57-31,14.2-32.24,13.81S1753.74,1515.3,1753.74,1515.3Z"/><path class="cls-15" d="M1860.32,1492.36s4.12,1.23,16.79,18.46L1856.76,1543l-12.4-29.9Z"/><path class="cls-15" d="M1830.65,1513.4s11.23-1.27,15.28-2.74,30.6,86.16,21.32,88.16c-19.4,4.16-69,18.63-69,18.63a38.63,38.63,0,0,1,1.08-17c4.7-15,7.37-49.24,7.37-55.28,0-3.56-18.39,8.75-18.39,8.75l-7.7-27.84s23.47-9.43,31.69-11.12C1814.57,1514.45,1830.65,1513.4,1830.65,1513.4Z"/><path class="cls-10" d="M1836.9,1502.74s-.37,12.37.79,13.53,2.78,3.09,1.07,6-9.12,1.06-12.57-.63a16.33,16.33,0,0,1-5.46-4.63l1.73-19.59Z"/><path class="cls-19" d="M1832,1507.86a17.31,17.31,0,0,1-9.75-7.66l.24-2.74,14.44,5.28s-.09,3,0,6.21A16.4,16.4,0,0,1,1832,1507.86Z"/><path class="cls-10" d="M1819.92,1483.48s-.35-7.27-4.82-5.86-1.06,12.38,2.64,12S1819.92,1483.48,1819.92,1483.48Z"/><path class="cls-10" d="M1834,1459.73s7-.15,10.56,5.28,7.45,21,1.55,31.68-13.43,8.07-16.54,7-9.23-3.49-12.34-13.51S1816.33,1457.64,1834,1459.73Z"/><path class="cls-27" d="M1831,1454.8s8.89-3.22,14.64,5.79,2.63,8.15,5.43,12.65,10.09,3.57,10.09,10.56-3.26,8.07-3.26,8.07a11.91,11.91,0,0,1-.31,11c-3.26,5.59-11.39,10.4-18.19,9.62,0,0-10.22,5.61-20.47,3s-6.68-2.65-10.87-2.65-15.53-5.74-13.66-14.13c0,0-6.91-8.2-.21-14.9s8-13.51,11.85-22.52S1826.3,1452.63,1831,1454.8Z"/><path class="cls-10" d="M1261.46,1711.14s.94,8.14.94,9.53v1.38l-.67,1.4-.27.56,4.87,6.84,20,.29c.44,0-2.62-4.73-2.62-4.73s-6.47-4.87-7.63-8.29,1-10.54,1-10.54Z"/><path class="cls-10" d="M1167.16,1662.4s-7,4.32-8.05,5.18l-1.09.86-.68,1.41-.27.55-8.38.44s-12.39-15.14-12.66-15.49,3.56.52,3.56.52,7.82,1.05,11.23-.16,10.28-8,10.28-8Z"/><path class="cls-19" d="M1230.48,1586l-75.06,63.92,11.57,16.37s73.65-46.29,77.68-46.83,10.38.88,11.14,3.82,3.12,90.15,3.12,90.15h20l10.45-111.27Z"/><path class="cls-10" d="M1338.61,1494.8c5.55-3.64,18.6-17.64,23-22.4.05-.56.47-3.8,4-7.91,2.51-2.91,4.41-9.54,6-7.66s-2.44,7.14-.57,7.18,11.16-10.4,12.65-8.7-7.94,11-6.26,11,9.32-9.36,11.43-7-10,10.21-8.9,11.51,8.65-3.83,10.35-1.89-10.6,6.5-9.62,6.52,8.08-.17,8.14,1.19c.06,1.55-18,4-20.17,6.63h0c-4.71,7.5-13.09,21.19-21.58,27.2-10.39,7.35-34.39,23-34.39,23l-11.92-15.41S1332,1499.12,1338.61,1494.8Z"/><path class="cls-10" d="M1228.58,1478c-4.41-5-13.34-21.89-16.36-27.64.1-.56.54-3.79-1.81-8.69-1.66-3.46-1.76-10.36-3.84-9s.48,7.54-1.33,7.08-8-13-9.93-11.69,4.78,12.67,3.16,12.26-6.55-11.48-9.22-9.7,7,12.48,5.58,13.43-7.35-6-9.49-4.53,8.53,9,7.58,8.81-7.76-2.28-8.17-1c-.46,1.47,16.31,8.51,17.74,11.67h0c2.58,8.46,7.09,23.87,13.71,31.89,8.1,9.81,27.19,31.14,27.19,31.14l15.54-11.75S1233.81,1483.84,1228.58,1478Z"/><path class="cls-13" d="M1241.17,1489.32l-14,18.28,17.39,25.88s-1.64,19.22-4.15,25.22-17,30.66-17,30.66,35.23,21.6,69.71,18.43c0,0,9.7-50,12.43-54.76s29-28.58,29-28.58l-12.76-20.62-22,12.22s-40.28-6.51-42.22-8.45S1241.17,1489.32,1241.17,1489.32Z"/><path class="cls-10" d="M1292.12,1487.07c-1.11,3.09-.32,6.19,1.77,6.94s4.67-1.15,5.77-4.23.32-6.19-1.77-6.94S1293.22,1484,1292.12,1487.07Z"/><path class="cls-10" d="M1255.43,1479.5c-.15,3.28,1.52,6,3.73,6.12s4.13-2.46,4.28-5.74-1.51-6-3.72-6.11S1255.59,1476.23,1255.43,1479.5Z"/><path class="cls-10" d="M1271,1501.18c0,.21-1.77,7.8-2.71,11.82a3.23,3.23,0,0,0,1.81,3.67c3.74,1.7,11.09,4.09,16.17-.52a2.08,2.08,0,0,0,.69-1.65l-.62-18.12Z"/><path class="cls-9" d="M1270,1505.43c4,2,8.93,2,14.52-1.24a20.19,20.19,0,0,0,2-1.32l-.22-6.49-15.34,4.8C1271,1501.28,1270.57,1503.11,1270,1505.43Z"/><path class="cls-10" d="M1281.87,1459.33a19.45,19.45,0,0,1,10.63,8.29c3.94,6.51,6.11,25.35-7.94,33.59s-24.28-4.52-24-16.59S1266.17,1457.12,1281.87,1459.33Z"/><path class="cls-32" d="M1257.9,1735.85c-3-.38,2.17-10.74,3.83-12.4l22,3s10.59,4.91,13.09,7.42c.6.6.68,1.64-1.9,2C1286.6,1737.09,1264.52,1736.69,1257.9,1735.85Z"/><path class="cls-32" d="M1149.8,1680.72c2.58,1.55,7.28-8.54,7.54-10.87l-17.75-14s-13.69-3.93-16.46-1.17C1120.62,1657.21,1143.94,1677.2,1149.8,1680.72Z"/><path class="cls-27" d="M1286.62,1451.94s-13.6-7.2-18.25,4.73c0,0-12.22-1.24-10.11,11.42,0,0-12.29,6.18-4.51,22.11,0,0-3.42,15,14.11,15.92,0,0,2.62,5.31,10.62,4.08s10-3.35,10-3.35,14.19,4.14,18.48-8.66c0,0,9.74-2.32,3.2-14.83,0,0,8.51-16.22-6.48-21.09C1303.71,1462.27,1302,1445.69,1286.62,1451.94Z"/><path class="cls-27" d="M2153.89,1238.64a74.88,74.88,0,0,1-8.93-1.47c-3.33-.79-7.6-1.62-10.14-1.46-5.36.35-14.14,2.85-17.87,9.26-4.65,8-16.73,5-6.85,39.25,11.18,38.81,32.12,29.65,32.5,28.87s14-29.5,14-29.5,9.85,13.05,9.73,12.52S2190,1242.52,2153.89,1238.64Z"/><path class="cls-9" d="M2295.84,1360.3c.22-2.55-11.64-1.55-12.85-3.76s13.72-6.21,13.73-8.42c0-4.09-16.62,3.36-16.74,1.48s16.67-10.4,14-13-16.48,10.66-17.5,8.69,13.92-11.16,12.46-15.66c-.77-2.4-23.52,19-26.93,18.41s.05-13.66-2.83-14.74-3.53,25.75-5,27-32.05,30.76-43.94,37.23c-2.63-3.87-19.48-23.64-21.86-27.32-5.85,6.89-13.85,10.1-20,16.61,8.74,12,35.44,40.29,39.59,41,12.62,2.24,47.19-45.21,54.35-53.65s12.69-7.7,18.1-11.16S2295.61,1362.85,2295.84,1360.3Z"/><path class="cls-24" d="M2179.23,1409.21s-38.1-39.08-44-55.06,14.58-23.79,29.54-21.82,40.18,50.93,40.18,50.93Z"/><path class="cls-10" d="M2195.55,1872.71s-1.29,23.23-1.3,23.27c-.48,3-2.34,10.24-2.34,12.92,0,10.07,44-8.55,34.12-13-.89-.41-5.56-3.46-5.86-6.89-.45-5.28-1.59-16-1.59-16Z"/><path class="cls-12" d="M2225.93,1895.79s-10.33,3.08-15.62,3.85-12.26-5.71-16-4c-4.12,1.93-3.71,20.91-3.71,20.91s55.13,3.31,70.7-1.8C2267.47,1912.77,2247,1903,2225.93,1895.79Z"/><path class="cls-10" d="M2098.64,1874.94s-1.29,23.22-1.3,23.27c-.48,3-2.34,10.24-2.34,12.92,0,10.07,44-8.55,34.13-13-.9-.41-7-5.74-7.25-9.17-.45-5.28-.21-13.68-.21-13.68Z"/><path class="cls-12" d="M2129,1898s-10.33,3.08-15.62,3.85-12.26-5.71-16-4c-4.12,1.93-4.29,19.28-4.29,19.28s58.94,4.35,72.79.26C2172.13,1915.62,2150.13,1905.2,2129,1898Z"/><path class="cls-19" d="M2168.34,1539.68l18.6,8.17,39.12,190.29-1.59,142.65-31.36.75s-14.58-124.79-14.58-134.46S2111,1577.85,2111,1577.85Z"/><path class="cls-15" d="M2154,1550.15s-13.7,146.61-13.7,171.33-11.11,163-11.11,163l-31.43-.19s-2.27-42.16-5.64-104.18c-.53-9.72.68-29.32,0-39.37-4.89-72.33-10.49-194.13-7.77-197C2104.93,1522.08,2154,1550.15,2154,1550.15Z"/><path class="cls-11" d="M2123.27,1330.21s-24.64,2.61-30.69,6.38c-6.82,4.24-10.37,21.92-10.37,21.92s3.89,92,2.09,113.48c-1.39,16.63-2.09,84.67-2.09,84.67s79.74,12,111.15,2.43c0,0-5.42-49.39-4.33-62.14s-.42-129.71-2.33-138c-1.74-7.55-4.93-21.13-19.31-25.64S2123.27,1330.21,2123.27,1330.21Z"/><path class="cls-10" d="M2129.86,1305.17l-8,30.33s14.58,18.25,26.51,16.07c10-1.83,8.59-14.7,8.59-14.7s-3.83-17.87-1.49-26.45S2129.86,1305.17,2129.86,1305.17Z"/><path class="cls-15" d="M2155.48,1310.42c2.35-8.58-25.62-5.25-25.62-5.25l-.66,2.52a14.23,14.23,0,0,0,2.61,4.54c5.65,6.3,14.94,10.59,23.21,11.56C2154.6,1319,2154.52,1313.94,2155.48,1310.42Z"/><path class="cls-9" d="M2610.13,1864s8,7.85,8.23,10.73.71,33.74-2.58,36.62-12.93,4.92-9.82,8.16c2.34,2.45,20.37,1.93,32.32,1.27,3.49-.19,7.87-28,9.25-32.12,2-5.94,6.88-19.32,5.06-23.46-.89-2-5.14-6.17-11.13-10-6.31-4.07-12.34-13.13-12.34-13.13Z"/><path class="cls-10" d="M2526.8,1882.28s7.2,20.33,7.21,20.38c.53,3.23,2.64,11.19,2.64,14.12,0,11-49.62-9.34-38.5-14.22,1-.44,4.16-4,4.49-7.71.51-5.77-4.18-13-4.18-13Z"/><path class="cls-31" d="M2449,1503.59s-3.62,36.46-3.62,37c0,59-11.69,174.17-9.46,185.26,5.42,27,63.79,165,63.79,165l31.55-3.77L2490.1,1721.9l15.13-66.48L2526.64,1524Z"/><path class="cls-23" d="M2554.84,1535.84l6,34.55L2577,1712.6l61.68,139s-8.68,20.23-21.47,23.07L2519.05,1732l-61-182.59,2.14-40.57Z"/><path class="cls-12" d="M2641.07,1855s-18.55,52.2-25.8,54.72c-1.93.67-11.18,2.37-12.92,6.46-.53,1.23,0,5.34,0,5.34H2641s4.89-23,6.82-33.1c0,0,10.23-24.7,9.1-26.94S2641.07,1855,2641.07,1855Z"/><path class="cls-12" d="M2539.47,1920.41l-5.68-18s-11.94,5-17.9,4.21-17.62-4.21-17.62-4.21c-23.82,7.84-43.33,11.65-39.78,18h81Z"/><path class="cls-9" d="M2293.5,1408.63l3.26,2s3.16,2.63,4,2.83,23.06-.3,23.06-.3.08,7.4-.06,7.4-11.7,9.41-11.7,9.41l-2.46,1.13-15.16-4.53-13.83-1.73s-9.82-1.14-9.82-1.38.29-8,.67-8.38,5.94-6.08,5.94-6.08,4.26-1,4.4-1,4.27-.82,4.41-.87,6.6,1,6.6,1Z"/><path class="cls-8" d="M2260.61,1425.43a37.92,37.92,0,0,1,6.9,1.53c2.39,1,21.35,15.32,21.35,15.32s2.54,1.39,3.88.29a3,3,0,0,0,1.24-2.39s2.25,1.24,3.78.38a2.57,2.57,0,0,0,1.3-3s2.2.63,3.49-.47.62-3.93.62-3.93,4.07,2.49,5.65.81.91-3.44-.67-4.78-11-7.57-12.06-8.29-4.21-4-5.17-4.45-3.31-1.72-3.31-1.72-3.92.43-4.16.57-1.34,2.88-3.3,3.59a5,5,0,0,1-4.36-.57,3.64,3.64,0,0,1-.05-1.48c.1-.58,1.53-2.69,1.87-4.36s.76-2.16,1.39-2.54,4-1.39,5.69-2.06,8.72,1.3,8.72,1.3l3.35,1.43s-.62-2.48-2.73-2.87-4.74-1-6.22-1.1-4.93.91-6.51,1a25.7,25.7,0,0,0-6.32,1c-1.78.67-12.5,0-13.17-.1C2261.81,1408.53,2257.17,1421.12,2260.61,1425.43Z"/><path class="cls-8" d="M2264.28,1408.65c-4.51-.1-56.6-.54-76.17-.71a21.52,21.52,0,0,1-13.16-4.62l-43.53-34.25L2105,1396.78l53.17,36.75c3.61,2.61,23.9,4.87,28.34,4.42,20.55-2.08,72.8-12.55,78-11.83Z"/><path class="cls-9" d="M2303.63,1413.43c4.51-.1,59.38-.9,78.95-1.06a21.52,21.52,0,0,0,13.16-4.62l43.53-34.25,19.06,22-54,39a18.18,18.18,0,0,1-12.49,3.36c-20.55-2.08-76.84-7.59-82.07-6.87Z"/><path class="cls-24" d="M2162.29,1386.83s-36.44-38.33-49.62-48-29.9-1.51-30.74,15.22c-1.23,24.37,47.08,68,47.08,68Z"/><path class="cls-14" d="M2417.65,1386.83s36.43-38.33,49.62-48,39.69-1.45,37.59,15.16c-2.15,17-61.68,59.86-61.68,59.86Z"/><path class="cls-14" d="M2459.94,1373c-.85,5.87-16.45,165.45-16.45,165.45,73.89,35.69,114.66,6.36,114.66,6.36s-2.42-112.06.48-127.32c1.91-10.09.13-78.1-6.41-80-8.39-2.41-13.84-4-24.33-5.1-8.95-.93-43.73-1.47-49.95.62A79.2,79.2,0,0,0,2459.94,1373Z"/><path class="cls-10" d="M2518.07,1299.61l5.44,33.24s-19.9,42.29-31.79,38.73c-10-3-3.84-39.31-3.84-39.31s5.44-19.51,3.81-29.27S2518.07,1299.61,2518.07,1299.61Z"/><path class="cls-15" d="M2491.69,1303c-1.63-9.76,26.38-3.39,26.38-3.39l.45,2.86a15.84,15.84,0,0,1-3,4.81c-6.25,6.46-16,10.33-24.49,10.63C2491.83,1312.65,2492.35,1307,2491.69,1303Z"/><path class="cls-10" d="M2522.67,1250.84c.79-.28,6.35,39.26-4.2,50.14s-31.08,14.44-38.45,5.88c-8.15-9.48-7.74-52,8.65-63.17S2522.67,1250.84,2522.67,1250.84Z"/><path class="cls-27" d="M2518.8,1235.6c5.76.65,13.57,3.7,21.65,16.52,9.93,15.77,2.59,33.23-9,41.8s-11.35,18.39-11.35,18.39l-1.87-5a27.51,27.51,0,0,1-1.45-12.06,22.6,22.6,0,0,1,1.87-7.25c2.78-5.72-6-9.52-8.43-14.29-1.89-3.66-2-12.05-5-18.11l-3.56-4.62s-8.2-6.12-16.22-4.4S2487.36,1210.73,2518.8,1235.6Z"/><path class="cls-10" d="M2510.8,1280.71c-.08,4.83,2.21,8.78,5.11,8.82s5.33-3.82,5.41-8.65-2.2-8.77-5.11-8.82S2510.89,1275.89,2510.8,1280.71Z"/><path class="cls-18" d="M2479.81,1289.81l17.42,1.77s-1.07,6.57-8.76,6C2479.11,1296.91,2479.81,1289.81,2479.81,1289.81Z"/><path class="cls-8" d="M2630.8,1550.43a4.34,4.34,0,0,0,0-1.08c-1.15-11.68-10.85-109.76-12.48-113.93-1.48-3.76-45-66-45-66L2552,1398.57l41.83,55.8c.94,3.54,16,69.75,16,69.75s3.09,12.07,4.48,19.3c-.63,1.74-1.25,3.39-1.8,4.74a43.6,43.6,0,0,1-4.51,7.24c-1.87,2.51-5,8-5.34,9.44-.44,1.71-1.24,5.25-1.69,7.38s-1.08,4.63-1.18,5.79a11.07,11.07,0,0,1-1.35,3.1,1.87,1.87,0,0,0,2.2,2.7c1.52-.51,2.7-2.47,3.43-3.7,2.06-3.46,3.16-9.78,3.67-9.44s2.32,11,2.6,12.26,2.45,13.66,3.67,15.93,2.84,1.9,3.27.47c.37-1.22-1.35-18.64-1.35-18.64s-.21-2.22.76-1.52,2.56,16.5,3.24,18.81,2.22,3.54,3.53,1.68c1.59-2.26-1.15-19-1.15-19s-.31-2.1.59-1.91,2,13.67,2.73,14.84,2.47,1.58,3.32-.36c1-2.29-1.58-17.24-1.58-17.24s.12-1.19.68-.79,2.35,11.81,3.51,12.86a1.23,1.23,0,0,0,1.79,0c2.13-1.45-1.14-12.31-1.11-17.71s-2.47-11.47-1.72-17.9C2630.59,1552.05,2630.72,1551.06,2630.8,1550.43Z"/><path class="cls-14" d="M2607.35,1408.85l-37.15,24.94s-20.94-31.16-32.18-42.25c-14.08-13.9,5.13-56.47,14.2-54.06C2572.51,1342.86,2607.35,1408.85,2607.35,1408.85Z"/><path class="cls-10" d="M2138.5,1253.13a19.21,19.21,0,0,1,25.79,14.19,147,147,0,0,1,2.41,18.39c1.08,16.79-6.83,33.53-14.44,33.88s-29.13-9.59-31-33.41C2120.11,1271.47,2126.82,1257.76,2138.5,1253.13Z"/><path class="cls-10" d="M2127,1287.81c.18,3.71-2.13,6.83-5.16,7s-5.61-2.76-5.78-6.46,2.14-6.82,5.16-7S2126.78,1284.11,2127,1287.81Z"/><path class="cls-27" d="M2121.17,1281.35s9.34.24,11.37-6.18,11.06-21.31,27.13-19.52-15.89-9.49-17.09-9.22l-15.55,3.34s-9.05,11.53-9.22,12.62-1,12.68-1,12.68Z"/><path class="cls-18" d="M2142.63,1301.53l16.79-.48s-.19,6.41-7.57,6.83C2142.85,1308.4,2142.63,1301.53,2142.63,1301.53Z"/></g></svg>